<?xml version="1.0" encoding="UTF-8" standalone="no"?>
<!-- Created with Inkscape (http://www.inkscape.org/) -->

<svg
   xmlns:dc="http://purl.org/dc/elements/1.1/"
   xmlns:cc="http://creativecommons.org/ns#"
   xmlns:rdf="http://www.w3.org/1999/02/22-rdf-syntax-ns#"
   xmlns:svg="http://www.w3.org/2000/svg"
   xmlns="http://www.w3.org/2000/svg"
   xmlns:sodipodi="http://sodipodi.sourceforge.net/DTD/sodipodi-0.dtd"
   xmlns:inkscape="http://www.inkscape.org/namespaces/inkscape"
   width="607.19"
   height="250.98"
   id="svg2"
   version="1.1"
   inkscape:version="0.48.4 r9939"
   sodipodi:docname="grouping.svg">
  <defs
     id="defs4">
    <marker
       inkscape:stockid="Arrow1Lend"
       orient="auto"
       refY="0"
       refX="0"
       id="Arrow1Lend"
       style="overflow:visible">
      <path
         id="path4316"
         d="M 0,0 5,-5 -12.5,0 5,5 0,0 z"
         style="fill-rule:evenodd;stroke:#000000;stroke-width:1pt"
         transform="matrix(-0.8,0,0,-0.8,-10,0)"
         inkscape:connector-curvature="0" />
    </marker>
    <marker
       inkscape:stockid="Arrow2Lend"
       orient="auto"
       refY="0"
       refX="0"
       id="Arrow2Lend"
       style="overflow:visible">
      <path
         id="path4334"
         style="fill-rule:evenodd;stroke-width:0.625;stroke-linejoin:round"
         d="M 8.7185878,4.0337352 -2.2072895,0.01601326 8.7185884,-4.0017078 c -1.7454984,2.3720609 -1.7354408,5.6174519 -6e-7,8.035443 z"
         transform="matrix(-1.1,0,0,-1.1,-1.1,0)"
         inkscape:connector-curvature="0" />
    </marker>
    <marker
       inkscape:stockid="Arrow2Lstart"
       orient="auto"
       refY="0"
       refX="0"
       id="Arrow2Lstart"
       style="overflow:visible">
      <path
         id="path4331"
         style="fill-rule:evenodd;stroke-width:0.625;stroke-linejoin:round"
         d="M 8.7185878,4.0337352 -2.2072895,0.01601326 8.7185884,-4.0017078 c -1.7454984,2.3720609 -1.7354408,5.6174519 -6e-7,8.035443 z"
         transform="matrix(1.1,0,0,1.1,1.1,0)"
         inkscape:connector-curvature="0" />
    </marker>
    <marker
       inkscape:stockid="Arrow1Lstart"
       orient="auto"
       refY="0"
       refX="0"
       id="Arrow1Lstart"
       style="overflow:visible">
      <path
         id="path4313"
         d="M 0,0 5,-5 -12.5,0 5,5 0,0 z"
         style="fill-rule:evenodd;stroke:#000000;stroke-width:1pt"
         transform="matrix(0.8,0,0,0.8,10,0)"
         inkscape:connector-curvature="0" />
    </marker>
    <marker
       inkscape:stockid="Arrow2Lstart"
       orient="auto"
       refY="0"
       refX="0"
       id="Arrow2Lstart-9"
       style="overflow:visible">
      <path
         inkscape:connector-curvature="0"
         id="path4331-4"
         style="fill-rule:evenodd;stroke-width:0.625;stroke-linejoin:round"
         d="M 8.7185878,4.0337352 -2.2072895,0.01601326 8.7185884,-4.0017078 c -1.7454984,2.3720609 -1.7354408,5.6174519 -6e-7,8.035443 z"
         transform="matrix(1.1,0,0,1.1,1.1,0)" />
    </marker>
    <marker
       inkscape:stockid="Arrow2Lend"
       orient="auto"
       refY="0"
       refX="0"
       id="Arrow2Lend-8"
       style="overflow:visible">
      <path
         inkscape:connector-curvature="0"
         id="path4334-8"
         style="fill-rule:evenodd;stroke-width:0.625;stroke-linejoin:round"
         d="M 8.7185878,4.0337352 -2.2072895,0.01601326 8.7185884,-4.0017078 c -1.7454984,2.3720609 -1.7354408,5.6174519 -6e-7,8.035443 z"
         transform="matrix(-1.1,0,0,-1.1,-1.1,0)" />
    </marker>
    <filter
       id="filter3907"
       inkscape:label="Drop Shadow"
       color-interpolation-filters="sRGB">
      <feFlood
         id="feFlood3909"
         flood-opacity="0.5"
         flood-color="rgb(0,0,0)"
         result="flood" />
      <feComposite
         id="feComposite3911"
         in2="SourceGraphic"
         in="flood"
         operator="in"
         result="composite1" />
      <feGaussianBlur
         id="feGaussianBlur3913"
         stdDeviation="2"
         result="blur" />
      <feOffset
         id="feOffset3915"
         dx="4"
         dy="4"
         result="offset" />
      <feComposite
         id="feComposite3917"
         in2="offset"
         in="SourceGraphic"
         operator="over"
         result="composite2" />
    </filter>
  </defs>
  <sodipodi:namedview
     id="base"
     pagecolor="#ffffff"
     bordercolor="#666666"
     borderopacity="1.0"
     inkscape:pageopacity="0.0"
     inkscape:pageshadow="2"
     inkscape:zoom="1.4"
     inkscape:cx="319.49441"
     inkscape:cy="38.292366"
     inkscape:document-units="px"
     inkscape:current-layer="g2989"
     showgrid="false"
     inkscape:window-width="1680"
     inkscape:window-height="987"
     inkscape:window-x="-8"
     inkscape:window-y="-8"
     inkscape:window-maximized="1"
     showguides="true"
     fit-margin-top="0"
     fit-margin-left="0"
     fit-margin-right="0"
     fit-margin-bottom="0">
    <inkscape:grid
       type="xygrid"
       id="grid4305"
       empspacing="5"
       visible="true"
       enabled="true"
       snapvisiblegridlinesonly="true"
       originx="-48.069029px"
       originy="-335.9981px" />
  </sodipodi:namedview>
  <metadata
     id="metadata7">
    <rdf:RDF>
      <cc:Work
         rdf:about="">
        <dc:format>image/svg+xml</dc:format>
        <dc:type
           rdf:resource="http://purl.org/dc/dcmitype/StillImage" />
        <dc:title></dc:title>
      </cc:Work>
    </rdf:RDF>
  </metadata>
  <g
     inkscape:label="Layer 1"
     inkscape:groupmode="layer"
     id="layer1"
     style="display:inline"
     transform="translate(-48.069029,-465.38448)">
    <g
       id="g2989"
       transform="matrix(0.27287915,0,0,1,-514.7318,527.15786)">
      <rect
         style="fill:#ffffff;fill-opacity:1;stroke:#000000;stroke-width:1.85464823;stroke-opacity:1;filter:url(#filter3907)"
         id="rect6509"
         width="2208.9146"
         height="241.45763"
         x="2065.0623"
         y="-59.514359" />
      <path
         id="path3003"
         d="m 2276.0383,-43.499875 0,-0.424093 0,-0.393805 422.2613,0 0,0.393805 0,0.424093 -422.2613,0 z"
         style="fill:#000000;fill-opacity:1;fill-rule:evenodd;stroke:none"
         inkscape:connector-curvature="0" />
      <path
         id="path3005"
         d="m 2744.4334,-43.469587 0,-0.424093 0,-0.393797 1478.1136,0 0,0.393797 0,0.424093 -1478.1136,0 z"
         style="fill:#000000;fill-opacity:1;fill-rule:evenodd;stroke:none"
         inkscape:connector-curvature="0" />
      <path
         id="path3007"
         d="m 2698.2483,-43.923968 1.4399,0 1.5506,0 0,18.145081 -1.5506,0 -1.4399,0 0,-18.145081 z"
         style="fill:#000000;fill-opacity:1;fill-rule:evenodd;stroke:none"
         inkscape:connector-curvature="0" />
      <path
         id="path3009"
         d="m 2742.6633,-43.923968 1.44,0 1.5506,0 0,18.145081 -1.5506,0 -1.44,0 0,-18.145081 z"
         style="fill:#000000;fill-opacity:1;fill-rule:evenodd;stroke:none"
         inkscape:connector-curvature="0" />
      <path
         id="path3011"
         d="m 2699.6882,-25.354794 0,-0.424093 0,-0.393797 44.4151,0 0,0.393797 0,0.424093 -44.4151,0 z"
         style="fill:#000000;fill-opacity:1;fill-rule:evenodd;stroke:none"
         inkscape:connector-curvature="0" />
      <path
         id="path3061"
         d="m 2698.1483,-19.350915 0,0 0,0 c 0,0.411956 -0.6646,0.765052 -1.5507,0.765052 -0.7753,0 -1.4398,-0.353096 -1.4398,-0.765052 l 0,0 0,0 c 0,-0.470795 0.6645,-0.823898 1.4398,-0.823898 0.8861,0 1.5507,0.353103 1.5507,0.823898 z m 0,3.119046 0,0 0,0 c 0,0.411949 -0.6646,0.765052 -1.5507,0.765052 -0.7753,0 -1.4398,-0.353103 -1.4398,-0.765052 l 0,0 0,0 c 0,-0.470794 0.6645,-0.765044 1.4398,-0.765044 0.8861,0 1.5507,0.29425 1.5507,0.765044 z m 0,3.119047 0,0 0,0 c 0,0.411949 -0.6646,0.765052 -1.5507,0.765052 -0.7753,0 -1.4398,-0.353103 -1.4398,-0.765052 l 0,0 0,0 c 0,-0.470794 0.6645,-0.823898 1.4398,-0.823898 0.8861,0 1.5507,0.353104 1.5507,0.823898 z m 0,3.060201 0,0 0,0 c 0,0.470794 -0.6646,0.823898 -1.5507,0.823898 -0.7753,0 -1.4398,-0.353104 -1.4398,-0.823898 l 0,0 0,0 c 0,-0.411956 0.6645,-0.765052 1.4398,-0.765052 0.8861,0 1.5507,0.353096 1.5507,0.765052 z m 0,3.119047 0,0 0,0 c 0,0.470794 -0.6646,0.823897 -1.5507,0.823897 -0.7753,0 -1.4398,-0.353103 -1.4398,-0.823897 l 0,0 0,0 c 0,-0.411957 0.6645,-0.765053 1.4398,-0.765053 0.8861,0 1.5507,0.353096 1.5507,0.765053 z m 0,3.119039 0,0 0,0 c 0,0.470802 -0.6646,0.765052 -1.5507,0.765052 -0.7753,0 -1.4398,-0.29425 -1.4398,-0.765052 l 0,0 0,0 c 0,-0.411949 0.6645,-0.765045 1.4398,-0.765045 0.8861,0 1.5507,0.353096 1.5507,0.765045 z m 0,3.119046 0,0 0,0 c 0,0.411957 -0.6646,0.765052 -1.5507,0.765052 -0.7753,0 -1.4398,-0.353095 -1.4398,-0.765052 l 0,0 0,0 c 0,-0.411949 0.6645,-0.765044 1.4398,-0.765044 0.8861,0 1.5507,0.353095 1.5507,0.765044 z m 0,3.119047 0,0 0,0 c 0,0.411956 -0.6646,0.765052 -1.5507,0.765052 -0.7753,0 -1.4398,-0.353096 -1.4398,-0.765052 l 0,0 0,0 c 0,-0.411949 0.6645,-0.765045 1.4398,-0.765045 0.8861,0 1.5507,0.353096 1.5507,0.765045 z m 0,3.119046 0,0 0,0 c 0,0.411949 -0.6646,0.765053 -1.5507,0.765053 -0.7753,0 -1.4398,-0.353104 -1.4398,-0.765053 l 0,0 0,0 c 0,-0.411948 0.6645,-0.765052 1.4398,-0.765052 0.8861,0 1.5507,0.353104 1.5507,0.765052 z m 0,3.119046 0,0 0,0 c 0,0.411949 -0.6646,0.765046 -1.5507,0.765046 -0.7753,0 -1.4398,-0.353097 -1.4398,-0.765046 l 0,0 0,0 c 0,-0.470802 0.6645,-0.823896 1.4398,-0.823896 0.8861,0 1.5507,0.353094 1.5507,0.823896 z m 0,3.060203 0,0.05885 0,0 c 0,0.411948 -0.6646,0.765052 -1.5507,0.765052 -0.7753,0 -1.4398,-0.353104 -1.4398,-0.765052 l 0,-0.05885 0,0 c 0,-0.411957 0.6645,-0.765053 1.4398,-0.765053 0.8861,0 1.5507,0.353096 1.5507,0.765053 z m 0,3.177892 0,0 0,0 c 0,0.411948 -0.6646,0.765043 -1.5507,0.765043 -0.7753,0 -1.4398,-0.353096 -1.4398,-0.765043 l 0,0 0,0 c 0,-0.470803 0.6645,-0.823898 1.4398,-0.823898 0.8861,0 1.5507,0.353096 1.5507,0.823898 z m 0,3.060193 0,0 0,0 c 0,0.47081 -0.6646,0.823898 -1.5507,0.823898 -0.7753,0 -1.4398,-0.353088 -1.4398,-0.823898 l 0,0 0,0 c 0,-0.411949 0.6645,-0.765044 1.4398,-0.765044 0.8861,0 1.5507,0.353095 1.5507,0.765044 z m 0,3.119047 0,0 0,0 c 0,0.411956 -0.6646,0.823905 -1.5507,0.823905 -0.7753,0 -1.4398,-0.411949 -1.4398,-0.823905 l 0,0 0,0 c 0,-0.411941 0.6645,-0.765052 1.4398,-0.765052 0.8861,0 1.5507,0.353111 1.5507,0.765052 z m 0,3.119054 0,0 0,0 c 0,0.470794 -0.6646,0.765043 -1.5507,0.765043 -0.7753,0 -1.4398,-0.294249 -1.4398,-0.765043 l 0,0 0,0 c 0,-0.411949 0.6645,-0.765053 1.4398,-0.765053 0.8861,0 1.5507,0.353104 1.5507,0.765053 z m 0,3.119039 0,0 0,0 c 0,0.411948 -0.6646,0.765052 -1.5507,0.765052 -0.7753,0 -1.4398,-0.353104 -1.4398,-0.765052 l 0,0 0,0 c 0,-0.411949 0.6645,-0.765045 1.4398,-0.765045 0.8861,0 1.5507,0.353096 1.5507,0.765045 z m 0,3.119046 0,0 0,0 c 0,0.411949 -0.6646,0.765045 -1.5507,0.765045 -0.7753,0 -1.4398,-0.353096 -1.4398,-0.765045 l 0,0 0,0 c 0,-0.411949 0.6645,-0.765052 1.4398,-0.765052 0.8861,0 1.5507,0.353103 1.5507,0.765052 z m 0,3.119054 0,0 0,0 c 0,0.411942 -0.6646,0.765045 -1.5507,0.765045 -0.7753,0 -1.4398,-0.353103 -1.4398,-0.765045 l 0,0 0,0 c 0,-0.411956 0.6645,-0.765052 1.4398,-0.765052 0.8861,0 1.5507,0.353096 1.5507,0.765052 z m 0,3.119039 0,0 0,0 c 0,0.411949 -0.6646,0.765053 -1.5507,0.765053 -0.7753,0 -1.4398,-0.353104 -1.4398,-0.765053 l 0,0 0,0 c 0,-0.411956 0.6645,-0.823897 1.4398,-0.823897 0.8861,0 1.5507,0.411941 1.5507,0.823897 z m 0,3.119047 0,0 0,0 c 0,0.411949 -0.6646,0.765052 -1.5507,0.765052 -0.7753,0 -1.4398,-0.353103 -1.4398,-0.765052 l 0,0 0,0 c 0,-0.470794 0.6645,-0.823898 1.4398,-0.823898 0.8861,0 1.5507,0.353104 1.5507,0.823898 z m 0,3.060194 0,0.05893 0,0 c 0,0.411949 -0.6646,0.765045 -1.5507,0.765045 -0.7753,0 -1.4398,-0.353096 -1.4398,-0.765045 l 0,-0.05893 0,0 c 0,-0.411949 0.6645,-0.765045 1.4398,-0.765045 0.8861,0 1.5507,0.353096 1.5507,0.765045 z m 0,3.177892 0,0 0,0 c 0,0.411949 -0.6646,0.765052 -1.5507,0.765052 -0.7753,0 -1.4398,-0.353103 -1.4398,-0.765052 l 0,0 0,0 c 0,-0.470795 0.6645,-0.823898 1.4398,-0.823898 0.8861,0 1.5507,0.353103 1.5507,0.823898 z m 0,3.060201 0,0 0,0 c 0,0.470802 -0.6646,0.823898 -1.5507,0.823898 -0.7753,0 -1.4398,-0.353096 -1.4398,-0.823898 l 0,0 0,0 c 0,-0.411949 0.6645,-0.765052 1.4398,-0.765052 0.8861,0 1.5507,0.353103 1.5507,0.765052 z m 0,3.119039 0,0 0,0 c 0,0.411956 -0.6646,0.765052 -1.5507,0.765052 -0.7753,0 -1.4398,-0.353096 -1.4398,-0.765052 l 0,0 0,0 c 0,-0.411941 0.6645,-0.765045 1.4398,-0.765045 0.8861,0 1.5507,0.353104 1.5507,0.765045 z m 0,3.119054 0,0 0,0 c 0,0.470794 -0.6646,0.765052 -1.5507,0.765052 -0.7753,0 -1.4398,-0.294258 -1.4398,-0.765052 l 0,0 0,0 c 0,-0.411949 0.6645,-0.765052 1.4398,-0.765052 0.8861,0 1.5507,0.353103 1.5507,0.765052 z m 0,3.119047 0,0 0,0 c 0,0.411949 -0.6646,0.765044 -1.5507,0.765044 -0.7753,0 -1.4398,-0.353095 -1.4398,-0.765044 l 0,0 0,0 c 0,-0.411949 0.6645,-0.765052 1.4398,-0.765052 0.8861,0 1.5507,0.353103 1.5507,0.765052 z m 0,3.119039 0,0 0,0 c 0,0.411949 -0.6646,0.765052 -1.5507,0.765052 -0.7753,0 -1.4398,-0.353103 -1.4398,-0.765052 l 0,0 0,0 c 0,-0.470795 0.6645,-0.765045 1.4398,-0.765045 0.8861,0 1.5507,0.29425 1.5507,0.765045 z m 0,3.119054 0,0 0,0 c 0,0.411941 -0.6646,0.765052 -1.5507,0.765052 -0.7753,0 -1.4398,-0.353111 -1.4398,-0.765052 l 0,0 0,0 c 0,-0.411957 0.6645,-0.823905 1.4398,-0.823905 0.8861,0 1.5507,0.411948 1.5507,0.823905 z m 0,3.119045 0,0 0,0 c 0,0.41195 -0.6646,0.76505 -1.5507,0.76505 -0.7753,0 -1.4398,-0.3531 -1.4398,-0.76505 l 0,0 0,0 c 0,-0.47081 0.6645,-0.8239 1.4398,-0.8239 0.8861,0 1.5507,0.35309 1.5507,0.8239 z m 0,3.0602 0,0 0,0 c 0,0.47079 -0.6646,0.82389 -1.5507,0.82389 -0.7753,0 -1.4398,-0.3531 -1.4398,-0.82389 l 0,0 0,0 c 0,-0.41195 0.6645,-0.76506 1.4398,-0.76506 0.8861,0 1.5507,0.35311 1.5507,0.76506 z m 0,3.11904 0,0.0588 0,0 c 0,0.41195 -0.6646,0.76506 -1.5507,0.76506 -0.7753,0 -1.4398,-0.35311 -1.4398,-0.76506 l 0,-0.0588 0,0 c 0,-0.41195 0.6645,-0.76505 1.4398,-0.76505 0.8861,0 1.5507,0.3531 1.5507,0.76505 z m 0,3.11904 0,0 0,0 c 0,0.47081 -0.6646,0.8239 -1.5507,0.8239 -0.7753,0 -1.4398,-0.35309 -1.4398,-0.8239 l 0,0 0,0 c 0,-0.41195 0.6645,-0.76504 1.4398,-0.76504 0.8861,0 1.5507,0.35309 1.5507,0.76504 z m 0,3.11905 0,0 0,0 c 0,0.41195 -0.6646,0.76506 -1.5507,0.76506 -0.7753,0 -1.4398,-0.35311 -1.4398,-0.76506 l 0,0 0,0 c 0,-0.41195 0.6645,-0.76504 1.4398,-0.76504 0.8861,0 1.5507,0.35309 1.5507,0.76504 z m 0,3.11905 0,0 0,0 c 0,0.41195 -0.6646,0.76504 -1.5507,0.76504 -0.7753,0 -1.4398,-0.35309 -1.4398,-0.76504 l 0,0 0,0 c 0,-0.41195 0.6645,-0.76506 1.4398,-0.76506 0.8861,0 1.5507,0.35311 1.5507,0.76506 z m 0,3.11904 0,0 0,0 c 0,0.41195 -0.6646,0.76505 -1.5507,0.76505 -0.7753,0 -1.4398,-0.3531 -1.4398,-0.76505 l 0,0 0,0 c 0,-0.41195 0.6645,-0.76504 1.4398,-0.76504 0.8861,0 1.5507,0.35309 1.5507,0.76504 z m 0,3.11905 0,0 0,0 c 0,0.41195 -0.6646,0.76505 -1.5507,0.76505 -0.7753,0 -1.4398,-0.3531 -1.4398,-0.76505 l 0,0 0,0 c 0,-0.4708 0.6645,-0.76505 1.4398,-0.76505 0.8861,0 1.5507,0.29425 1.5507,0.76505 z m 0,3.11905 0,0 0,0 c 0,0.41195 -0.6646,0.76504 -1.5507,0.76504 -0.7753,0 -1.4398,-0.35309 -1.4398,-0.76504 l 0,0 0,0 c 0,-0.47081 0.6645,-0.76506 1.4398,-0.76506 0.8861,0 1.5507,0.29425 1.5507,0.76506 z m 0,3.11905 0,0 0,0 c 0,0.41195 -0.6646,0.76504 -1.5507,0.76504 -0.7753,0 -1.4398,-0.35309 -1.4398,-0.76504 l 0,0 0,0 c 0,-0.4708 0.6645,-0.82391 1.4398,-0.82391 0.8861,0 1.5507,0.35311 1.5507,0.82391 z m 0,3.06019 0,0 0,0 c 0,0.4708 -0.6646,0.8239 -1.5507,0.8239 -0.7753,0 -1.4398,-0.3531 -1.4398,-0.8239 l 0,0 0,0 c 0,-0.41195 0.6645,-0.76505 1.4398,-0.76505 0.8861,0 1.5507,0.3531 1.5507,0.76505 z m 0,3.119041 0,0 0,0 c 0,0.4708 -0.6646,0.8239 -1.5507,0.8239 -0.7753,0 -1.4398,-0.3531 -1.4398,-0.8239 l 0,0 0,0 c 0,-0.41195 0.6645,-0.76504 1.4398,-0.76504 0.8861,0 1.5507,0.35309 1.5507,0.76504 z m 0,3.11905 0,0 0,0 c 0,0.4708 -0.6646,0.8239 -1.5507,0.8239 -0.7753,0 -1.4398,-0.3531 -1.4398,-0.8239 l 0,0 0,0 c 0,-0.41195 0.6645,-0.76505 1.4398,-0.76505 0.8861,0 1.5507,0.3531 1.5507,0.76505 z m 0,3.11905 0,0 0,0 c 0,0.41194 -0.6646,0.8239 -1.5507,0.8239 -0.7753,0 -1.4398,-0.41196 -1.4398,-0.8239 l 0,0 0,0 c 0,-0.41195 0.6645,-0.76505 1.4398,-0.76505 0.8861,0 1.5507,0.3531 1.5507,0.76505 z m 0,3.11905 0,0 0,0 c 0,0.41195 -0.6646,0.76504 -1.5507,0.76504 -0.7753,0 -1.4398,-0.35309 -1.4398,-0.76504 l 0,0 0,0 c 0,-0.41196 0.6645,-0.76505 1.4398,-0.76505 0.8861,0 1.5507,0.35309 1.5507,0.76505 z m 0,3.11904 0,0 0,0 c 0,0.41195 -0.6646,0.76505 -1.5507,0.76505 -0.7753,0 -1.4398,-0.3531 -1.4398,-0.76505 l 0,0 0,0 c 0,-0.41195 0.6645,-0.76505 1.4398,-0.76505 0.8861,0 1.5507,0.3531 1.5507,0.76505 z m 0,3.11905 0,0 0,0 c 0,0.41194 -0.6646,0.76504 -1.5507,0.76504 -0.7753,0 -1.4398,-0.3531 -1.4398,-0.76504 l 0,0 0,0 c 0,-0.41195 0.6645,-0.76506 1.4398,-0.76506 0.8861,0 1.5507,0.35311 1.5507,0.76506 z m 0,3.11904 0,0 0,0 c 0,0.41196 -0.6646,0.76505 -1.5507,0.76505 -0.7753,0 -1.4398,-0.35309 -1.4398,-0.76505 l 0,0 0,0 c 0,-0.4708 0.6645,-0.76505 1.4398,-0.76505 0.8861,0 1.5507,0.29425 1.5507,0.76505 z m 0,3.11904 0,0 0,0 c 0,0.41196 -0.6646,0.76505 -1.5507,0.76505 -0.7753,0 -1.4398,-0.35309 -1.4398,-0.76505 l 0,0 0,0 c 0,-0.47079 0.6645,-0.8239 1.4398,-0.8239 0.8861,0 1.5507,0.35311 1.5507,0.8239 z m 0,3.06021 0,0 0,0 c 0,0.47079 -0.6646,0.8239 -1.5507,0.8239 -0.7753,0 -1.4398,-0.35311 -1.4398,-0.8239 l 0,0 0,0 c 0,-0.41195 0.6645,-0.76506 1.4398,-0.76506 0.8861,0 1.5507,0.35311 1.5507,0.76506 z m 0,3.11904 0,0 0,0 c 0,0.4708 -0.6646,0.8239 -1.5507,0.8239 -0.7753,0 -1.4398,-0.3531 -1.4398,-0.8239 l 0,0 0,0 c 0,-0.41195 0.6645,-0.76505 1.4398,-0.76505 0.8861,0 1.5507,0.3531 1.5507,0.76505 z m 0,3.11905 0,0 0,0 c 0,0.47079 -0.6646,0.76505 -1.5507,0.76505 -0.7753,0 -1.4398,-0.29426 -1.4398,-0.76505 l 0,0 0,0 c 0,-0.41195 0.6645,-0.76506 1.4398,-0.76506 0.8861,0 1.5507,0.35311 1.5507,0.76506 z m 0,3.11904 0,0 0,0 c 0,0.41195 -0.6646,0.82391 -1.5507,0.82391 -0.7753,0 -1.4398,-0.41196 -1.4398,-0.82391 l 0,0 0,0 c 0,-0.41194 0.6645,-0.76505 1.4398,-0.76505 0.8861,0 1.5507,0.35311 1.5507,0.76505 z m 0,3.11905 0,0 0,0 c 0,0.41194 -0.6646,0.76505 -1.5507,0.76505 -0.7753,0 -1.4398,-0.35311 -1.4398,-0.76505 l 0,0 0,0 c 0,-0.41196 0.6645,-0.76505 1.4398,-0.76505 0.8861,0 1.5507,0.35309 1.5507,0.76505 z m 0,3.11904 0,0 0,0 c 0,0.41195 -0.6646,0.76506 -1.5507,0.76506 -0.7753,0 -1.4398,-0.35311 -1.4398,-0.76506 l 0,0 0,0 c 0,-0.41195 0.6645,-0.76505 1.4398,-0.76505 0.8861,0 1.5507,0.3531 1.5507,0.76505 z m 0,3.11905 0,0 0,0 c 0,0.41195 -0.6646,0.76505 -1.5507,0.76505 -0.7753,0 -1.4398,-0.3531 -1.4398,-0.76505 l 0,0 0,0 c 0,-0.41195 0.6645,-0.76505 1.4398,-0.76505 0.8861,0 1.5507,0.3531 1.5507,0.76505 z m 0,3.11904 0,0 0,0 c 0,0.41195 -0.6646,0.76505 -1.5507,0.76505 -0.7753,0 -1.4398,-0.3531 -1.4398,-0.76505 l 0,0 0,0 c 0,-0.47079 0.6645,-0.76504 1.4398,-0.76504 0.8861,0 1.5507,0.29425 1.5507,0.76504 z m 0,3.11905 0,0 0,0 c 0,0.41195 -0.6646,0.76506 -1.5507,0.76506 -0.7753,0 -1.4398,-0.35311 -1.4398,-0.76506 l 0,0 0,0 c 0,-0.4708 0.6645,-0.8239 1.4398,-0.8239 0.8861,0 1.5507,0.3531 1.5507,0.8239 z m 0,3.11905 0,0 0,0 c 0,0.41195 -0.6646,0.76504 -1.5507,0.76504 -0.7753,0 -1.4398,-0.35309 -1.4398,-0.76504 l 0,0 0,0 c 0,-0.47081 0.6645,-0.8239 1.4398,-0.8239 0.8861,0 1.5507,0.35309 1.5507,0.8239 z"
         style="fill:#000000;fill-opacity:1;fill-rule:evenodd;stroke:none"
         inkscape:connector-curvature="0" />
      <g
         id="g3317"
         transform="matrix(0.46429042,0,0,0.46429042,1936.7488,-50.012718)">
        <path
           inkscape:connector-curvature="0"
           style="fill:#de0000;fill-opacity:1;fill-rule:evenodd;stroke:none"
           d="m 1141.7342,130.42332 95.4243,0 0,39.01608 -95.4243,0 z"
           id="path2993" />
        <path
           inkscape:connector-curvature="0"
           style="fill:#de0000;fill-opacity:1;fill-rule:evenodd;stroke:none"
           d="m 2029.3368,130.42332 95.1851,0 0,39.01608 -95.1851,0 z"
           id="path2997" />
        <path
           inkscape:connector-curvature="0"
           style="fill:#00e900;fill-opacity:1;fill-rule:evenodd;stroke:none"
           d="m 2372.7599,130.42332 95.4236,0 0,39.01608 -95.4236,0 z"
           id="path2999" />
        <path
           inkscape:connector-curvature="0"
           style="fill:#000000;fill-opacity:1;fill-rule:evenodd;stroke:none"
           d="m 2465.6377,131.33674 0,-0.91342 0,-0.84818 2458.5241,0 0,0.84818 0,0.91342 -2458.5241,0 z"
           id="path3017" />
        <path
           inkscape:connector-curvature="0"
           style="fill:#000000;fill-opacity:1;fill-rule:evenodd;stroke:none"
           d="m 1138.6329,130.42332 3.1013,0 3.3399,0 0,39.08132 -3.3399,0 -3.1013,0 0,-39.08132 z"
           id="path3019" />
        <path
           inkscape:connector-curvature="0"
           style="fill:#000000;fill-opacity:1;fill-rule:evenodd;stroke:none"
           d="m 1234.2957,130.42332 3.1013,0 3.3398,0 0,39.08132 -3.3398,0 -3.1013,0 0,-39.08132 z"
           id="path3021" />
        <path
           inkscape:connector-curvature="0"
           style="fill:#000000;fill-opacity:1;fill-rule:evenodd;stroke:none"
           d="m 1141.7342,170.41806 0,-0.91342 0,-0.84817 95.6628,0 0,0.84817 0,0.91342 -95.6628,0 z"
           id="path3023" />
        <path
           inkscape:connector-curvature="0"
           style="fill:#000000;fill-opacity:1;fill-rule:evenodd;stroke:none"
           d="m 2025.2812,130.42332 3.1013,0 3.3399,0 0,39.08132 -3.3399,0 -3.1013,0 0,-39.08132 z"
           id="path3039" />
        <path
           inkscape:connector-curvature="0"
           style="fill:#000000;fill-opacity:1;fill-rule:evenodd;stroke:none"
           d="m 2120.7049,130.42332 3.1012,0 3.3399,0 0,39.08132 -3.3399,0 -3.1012,0 0,-39.08132 z"
           id="path3041" />
        <path
           inkscape:connector-curvature="0"
           style="fill:#000000;fill-opacity:1;fill-rule:evenodd;stroke:none"
           d="m 2028.3825,170.41806 0,-0.91342 0,-0.84817 95.4236,0 0,0.84817 0,0.91342 -95.4236,0 z"
           id="path3043" />
        <path
           inkscape:connector-curvature="0"
           style="fill:#000000;fill-opacity:1;fill-rule:evenodd;stroke:none"
           d="m 2369.6586,130.42332 3.1013,0 3.3398,0 0,39.08132 -3.3398,0 -3.1013,0 0,-39.08132 z"
           id="path3045" />
        <path
           inkscape:connector-curvature="0"
           style="fill:#000000;fill-opacity:1;fill-rule:evenodd;stroke:none"
           d="m 2465.3208,130.42332 3.1013,0 3.3398,0 0,39.08132 -3.3398,0 -3.1013,0 0,-39.08132 z"
           id="path3047" />
        <path
           inkscape:connector-curvature="0"
           style="fill:#000000;fill-opacity:1;fill-rule:evenodd;stroke:none"
           d="m 2372.7599,170.41806 0,-0.91342 0,-0.84817 95.6622,0 0,0.84817 0,0.91342 -95.6622,0 z"
           id="path3049" />
        <path
           inkscape:connector-curvature="0"
           style="fill:#000000;fill-opacity:1;fill-rule:evenodd;stroke:none"
           d="m 2122.3026,131.33674 0,-0.91342 0,-0.84818 252.9205,0 0,0.84818 0,0.91342 -252.9205,0 z"
           id="path3051" />
        <path
           inkscape:connector-curvature="0"
           style="fill:#000000;fill-opacity:1;fill-rule:evenodd;stroke:none"
           d="m 731.72416,131.33674 0,-0.91342 0,-0.84818 408.53964,0 0,0.84818 0,0.91342 -408.53964,0 z"
           id="path3053" />
        <path
           inkscape:connector-curvature="0"
           style="fill:#000000;fill-opacity:1;fill-rule:evenodd;stroke:none"
           d="m 1235.0308,131.33674 0,-0.91342 0,-0.84818 796.5043,0 0,0.84818 0,0.91342 -796.5043,0 z"
           id="path3055" />
        <path
           id="path4219"
           d="m 1253.4186,348.42332 95.4243,0 0,39.01608 -95.4243,0 z"
           style="fill:#de0000;fill-opacity:1;fill-rule:evenodd;stroke:none"
           inkscape:connector-curvature="0" />
      </g>
      <path
         id="path3073"
         d="m 3007.9451,-19.353111 0,0 0,0 c 0,0.410851 -0.6647,0.763009 -1.5507,0.763009 -0.6646,0 -1.4399,-0.352158 -1.4399,-0.763009 l 0,0 0,0 c 0,-0.410851 0.7753,-0.821702 1.4399,-0.821702 0.886,0 1.5507,0.410851 1.5507,0.821702 z m 0,3.110729 0,0 0,0 c 0,0.410852 -0.6647,0.76301 -1.5507,0.76301 -0.6646,0 -1.4399,-0.352158 -1.4399,-0.76301 l 0,0 0,0 c 0,-0.410851 0.7753,-0.763009 1.4399,-0.763009 0.886,0 1.5507,0.352158 1.5507,0.763009 z m 0,3.11073 0,0 0,0 c 0,0.410851 -0.6647,0.763009 -1.5507,0.763009 -0.6646,0 -1.4399,-0.352158 -1.4399,-0.763009 l 0,0 0,0 c 0,-0.469544 0.7753,-0.763009 1.4399,-0.763009 0.886,0 1.5507,0.293465 1.5507,0.763009 z m 0,3.110729 0,0 0,0 c 0,0.410859 -0.6647,0.763009 -1.5507,0.763009 -0.6646,0 -1.4399,-0.35215 -1.4399,-0.763009 l 0,0 0,0 c 0,-0.469544 0.7753,-0.821702 1.4399,-0.821702 0.886,0 1.5507,0.352158 1.5507,0.821702 z m 0,3.110737 0,0 0,0 c 0,0.410844 -0.6647,0.763009 -1.5507,0.763009 -0.6646,0 -1.4399,-0.352165 -1.4399,-0.763009 l 0,0 0,0 c 0,-0.469551 0.7753,-0.821702 1.4399,-0.821702 0.886,0 1.5507,0.352151 1.5507,0.821702 z m 0,3.052037 0,0 0,0 c 0,0.469544 -0.6647,0.821694 -1.5507,0.821694 -0.6646,0 -1.4399,-0.35215 -1.4399,-0.821694 l 0,0 0,0 c 0,-0.410851 0.7753,-0.763017 1.4399,-0.763017 0.886,0 1.5507,0.352166 1.5507,0.763017 z m 0,3.110729 0,0 0,0 c 0,0.469537 -0.6647,0.821702 -1.5507,0.821702 -0.6646,0 -1.4399,-0.352165 -1.4399,-0.821702 l 0,0 0,0 c 0,-0.410851 0.7753,-0.763009 1.4399,-0.763009 0.886,0 1.5507,0.352158 1.5507,0.763009 z m 0,3.110722 0,0 0,0 c 0,0.469552 -0.6647,0.763017 -1.5507,0.763017 -0.6646,0 -1.4399,-0.293465 -1.4399,-0.763017 l 0,0 0,0 c 0,-0.410851 0.7753,-0.763009 1.4399,-0.763009 0.886,0 1.5507,0.352158 1.5507,0.763009 z m 0,3.110737 0,0 0,0 c 0,0.410851 -0.6647,0.763009 -1.5507,0.763009 -0.6646,0 -1.4399,-0.352158 -1.4399,-0.763009 l 0,0 0,0 c 0,-0.410851 0.7753,-0.763009 1.4399,-0.763009 0.886,0 1.5507,0.352158 1.5507,0.763009 z m 0,3.110721 0,0 0,0 c 0,0.410859 -0.6647,0.763017 -1.5507,0.763017 -0.6646,0 -1.4399,-0.352158 -1.4399,-0.763017 l 0,0 0,0 c 0,-0.469536 0.7753,-0.763 1.4399,-0.763 0.886,0 1.5507,0.293464 1.5507,0.763 z m 0,3.110737 0,0 0,0 c 0,0.410851 -0.6647,0.763009 -1.5507,0.763009 -0.6646,0 -1.4399,-0.352158 -1.4399,-0.763009 l 0,0 0,0 c 0,-0.469544 0.7753,-0.763009 1.4399,-0.763009 0.886,0 1.5507,0.293465 1.5507,0.763009 z m 0,3.11073 0,0 0,0 c 0,0.410851 -0.6647,0.763001 -1.5507,0.763001 -0.6646,0 -1.4399,-0.35215 -1.4399,-0.763001 l 0,0 0,0 c 0,-0.469552 0.7753,-0.821702 1.4399,-0.821702 0.886,0 1.5507,0.35215 1.5507,0.821702 z m 0,3.052028 0,0 0,0 c 0,0.469552 -0.6647,0.82171 -1.5507,0.82171 -0.6646,0 -1.4399,-0.352158 -1.4399,-0.82171 l 0,0 0,0 c 0,-0.410843 0.7753,-0.762993 1.4399,-0.762993 0.886,0 1.5507,0.35215 1.5507,0.762993 z m 0,3.110737 0,0 0,0 c 0,0.469537 -0.6647,0.821703 -1.5507,0.821703 -0.6646,0 -1.4399,-0.352166 -1.4399,-0.821703 l 0,0 0,0 c 0,-0.410851 0.7753,-0.763009 1.4399,-0.763009 0.886,0 1.5507,0.352158 1.5507,0.763009 z m 0,3.110737 0,0 0,0 c 0,0.469537 -0.6647,0.763002 -1.5507,0.763002 -0.6646,0 -1.4399,-0.293465 -1.4399,-0.763002 l 0,0 0,0 c 0,-0.410851 0.7753,-0.763017 1.4399,-0.763017 0.886,0 1.5507,0.352166 1.5507,0.763017 z m 0,3.110722 0,0 0,0 c 0,0.410851 -0.6647,0.763017 -1.5507,0.763017 -0.6646,0 -1.4399,-0.352166 -1.4399,-0.763017 l 0,0 0,0 c 0,-0.410851 0.7753,-0.763009 1.4399,-0.763009 0.886,0 1.5507,0.352158 1.5507,0.763009 z m 0,3.11073 0,0 0,0 c 0,0.410851 -0.6647,0.76301 -1.5507,0.76301 -0.6646,0 -1.4399,-0.352159 -1.4399,-0.76301 l 0,0 0,0 c 0,-0.410851 0.7753,-0.763016 1.4399,-0.763016 0.886,0 1.5507,0.352165 1.5507,0.763016 z m 0,3.11073 0,0 0,0 c 0,0.410851 -0.6647,0.763009 -1.5507,0.763009 -0.6646,0 -1.4399,-0.352158 -1.4399,-0.763009 l 0,0 0,0 c 0,-0.410844 0.7753,-0.763009 1.4399,-0.763009 0.886,0 1.5507,0.352165 1.5507,0.763009 z m 0,3.110729 0,0 0,0 c 0,0.410851 -0.6647,0.763009 -1.5507,0.763009 -0.6646,0 -1.4399,-0.352158 -1.4399,-0.763009 l 0,0 0,0 c 0,-0.410851 0.7753,-0.821702 1.4399,-0.821702 0.886,0 1.5507,0.410851 1.5507,0.821702 z m 0,3.110737 0,0 0,0 c 0,0.410844 -0.6647,0.763009 -1.5507,0.763009 -0.6646,0 -1.4399,-0.352165 -1.4399,-0.763009 l 0,0 0,0 c 0,-0.410858 0.7753,-0.821709 1.4399,-0.821709 0.886,0 1.5507,0.410851 1.5507,0.821709 z m 0,3.052029 0,0.0587 0,0 c 0,0.410851 -0.6647,0.763009 -1.5507,0.763009 -0.6646,0 -1.4399,-0.352158 -1.4399,-0.763009 l 0,-0.0587 0,0 c 0,-0.35215 0.7753,-0.763009 1.4399,-0.763009 0.886,0 1.5507,0.410859 1.5507,0.763009 z m 0,3.169423 0,0 0,0 c 0,0.410851 -0.6647,0.763016 -1.5507,0.763016 -0.6646,0 -1.4399,-0.352165 -1.4399,-0.763016 l 0,0 0,0 c 0,-0.469545 0.7753,-0.76301 1.4399,-0.76301 0.886,0 1.5507,0.293465 1.5507,0.76301 z m 0,3.110729 0,0 0,0 c 0,0.410851 -0.6647,0.763017 -1.5507,0.763017 -0.6646,0 -1.4399,-0.352166 -1.4399,-0.763017 l 0,0 0,0 c 0,-0.469536 0.7753,-0.821702 1.4399,-0.821702 0.886,0 1.5507,0.352166 1.5507,0.821702 z m 0,3.110737 0,0 0,0 c 0,0.35215 -0.6647,0.763001 -1.5507,0.763001 -0.6646,0 -1.4399,-0.410851 -1.4399,-0.763001 l 0,0 0,0 c 0,-0.469552 0.7753,-0.821702 1.4399,-0.821702 0.886,0 1.5507,0.35215 1.5507,0.821702 z m 0,3.052036 0,0 0,0 c 0,0.469537 -0.6647,0.821695 -1.5507,0.821695 -0.6646,0 -1.4399,-0.352158 -1.4399,-0.821695 l 0,0 0,0 c 0,-0.410851 0.7753,-0.763016 1.4399,-0.763016 0.886,0 1.5507,0.352165 1.5507,0.763016 z m 0,3.11073 0,0 0,0 c 0,0.469544 -0.6647,0.763001 -1.5507,0.763001 -0.6646,0 -1.4399,-0.293457 -1.4399,-0.763001 l 0,0 0,0 c 0,-0.410851 0.7753,-0.763017 1.4399,-0.763017 0.886,0 1.5507,0.352166 1.5507,0.763017 z m 0,3.110722 0,0 0,0 c 0,0.410851 -0.6647,0.763016 -1.5507,0.763016 -0.6646,0 -1.4399,-0.352165 -1.4399,-0.763016 l 0,0 0,0 c 0,-0.410851 0.7753,-0.763009 1.4399,-0.763009 0.886,0 1.5507,0.352158 1.5507,0.763009 z m 0,3.110729 0,0 0,0 c 0,0.410851 -0.6647,0.763017 -1.5507,0.763017 -0.6646,0 -1.4399,-0.352166 -1.4399,-0.763017 l 0,0 0,0 c 0,-0.410851 0.7753,-0.763009 1.4399,-0.763009 0.886,0 1.5507,0.352158 1.5507,0.763009 z m 0,3.110737 0,0 0,0 c 0,0.41085 -0.6647,0.763 -1.5507,0.763 -0.6646,0 -1.4399,-0.35215 -1.4399,-0.763 l 0,0 0,0 c 0,-0.46955 0.7753,-0.76302 1.4399,-0.76302 0.886,0 1.5507,0.29347 1.5507,0.76302 z m 0,3.11072 0,0 0,0 c 0,0.41085 -0.6647,0.76301 -1.5507,0.76301 -0.6646,0 -1.4399,-0.35216 -1.4399,-0.76301 l 0,0 0,0 c 0,-0.46953 0.7753,-0.8217 1.4399,-0.8217 0.886,0 1.5507,0.35217 1.5507,0.8217 z m 0,3.11074 0,0 0,0 c 0,0.41085 -0.6647,0.76301 -1.5507,0.76301 -0.6646,0 -1.4399,-0.35216 -1.4399,-0.76301 l 0,0 0,0 c 0,-0.46955 0.7753,-0.8217 1.4399,-0.8217 0.886,0 1.5507,0.35215 1.5507,0.8217 z m 0,3.05203 0,0 0,0 c 0,0.46955 -0.6647,0.82171 -1.5507,0.82171 -0.6646,0 -1.4399,-0.35216 -1.4399,-0.82171 l 0,0 0,0 c 0,-0.41085 0.7753,-0.763 1.4399,-0.763 0.886,0 1.5507,0.35215 1.5507,0.763 z m 0,3.11073 0,0 0,0 c 0,0.46954 -0.6647,0.76301 -1.5507,0.76301 -0.6646,0 -1.4399,-0.29347 -1.4399,-0.76301 l 0,0 0,0 c 0,-0.41085 0.7753,-0.763 1.4399,-0.763 0.886,0 1.5507,0.35215 1.5507,0.763 z m 0,3.11073 0,0 0,0 c 0,0.46954 -0.6647,0.76301 -1.5507,0.76301 -0.6646,0 -1.4399,-0.29347 -1.4399,-0.76301 l 0,0 0,0 c 0,-0.41085 0.7753,-0.763 1.4399,-0.763 0.886,0 1.5507,0.35215 1.5507,0.763 z m 0,3.11073 0,0 0,0 c 0,0.41085 -0.6647,0.76301 -1.5507,0.76301 -0.6646,0 -1.4399,-0.35216 -1.4399,-0.76301 l 0,0 0,0 c 0,-0.41086 0.7753,-0.76301 1.4399,-0.76301 0.886,0 1.5507,0.35215 1.5507,0.76301 z m 0,3.11073 0,0 0,0 c 0,0.41085 -0.6647,0.76301 -1.5507,0.76301 -0.6646,0 -1.4399,-0.35216 -1.4399,-0.76301 l 0,0 0,0 c 0,-0.46954 0.7753,-0.76301 1.4399,-0.76301 0.886,0 1.5507,0.29347 1.5507,0.76301 z m 0,3.11073 0,0 0,0 c 0,0.41086 -0.6647,0.76301 -1.5507,0.76301 -0.6646,0 -1.4399,-0.35215 -1.4399,-0.76301 l 0,0 0,0 c 0,-0.46954 0.7753,-0.76301 1.4399,-0.76301 0.886,0 1.5507,0.29347 1.5507,0.76301 z m 0,3.11073 0,0 0,0 c 0,0.41085 -0.6647,0.76301 -1.5507,0.76301 -0.6646,0 -1.4399,-0.35216 -1.4399,-0.76301 l 0,0 0,0 c 0,-0.41085 0.7753,-0.8217 1.4399,-0.8217 0.886,0 1.5507,0.41085 1.5507,0.8217 z m 0,3.05204 0,0 0,0 c 0,0.46954 -0.6647,0.8217 -1.5507,0.8217 -0.6646,0 -1.4399,-0.35216 -1.4399,-0.8217 l 0,0 0,0 c 0,-0.35217 0.7753,-0.76301 1.4399,-0.76301 0.886,0 1.5507,0.41084 1.5507,0.76301 z m 0,3.110721 0,0 0,0 c 0,0.46955 -0.6647,0.8217 -1.5507,0.8217 -0.6646,0 -1.4399,-0.35215 -1.4399,-0.8217 l 0,0 0,0 c 0,-0.41085 0.7753,-0.763 1.4399,-0.763 0.886,0 1.5507,0.35215 1.5507,0.763 z m 0,3.11074 0,0.0586 0,0 c 0,0.41085 -0.6647,0.763 -1.5507,0.763 -0.6646,0 -1.4399,-0.35215 -1.4399,-0.763 l 0,-0.0586 0,0 c 0,-0.41085 0.7753,-0.763 1.4399,-0.763 0.886,0 1.5507,0.35215 1.5507,0.763 z m 0,3.16942 0,0 0,0 c 0,0.35217 -0.6647,0.76302 -1.5507,0.76302 -0.6646,0 -1.4399,-0.41085 -1.4399,-0.76302 l 0,0 0,0 c 0,-0.46954 0.7753,-0.8217 1.4399,-0.8217 0.886,0 1.5507,0.35216 1.5507,0.8217 z m 0,3.05205 0,0 0,0 c 0,0.41085 -0.6647,0.8217 -1.5507,0.8217 -0.6646,0 -1.4399,-0.41085 -1.4399,-0.8217 l 0,0 0,0 c 0,-0.41086 0.7753,-0.76302 1.4399,-0.76302 0.886,0 1.5507,0.35216 1.5507,0.76302 z m 0,3.11072 0,0 0,0 c 0,0.41085 -0.6647,0.8217 -1.5507,0.8217 -0.6646,0 -1.4399,-0.41085 -1.4399,-0.8217 l 0,0 0,0 c 0,-0.41085 0.7753,-0.763 1.4399,-0.763 0.886,0 1.5507,0.35215 1.5507,0.763 z m 0,3.11073 0,0 0,0 c 0,0.46954 -0.6647,0.76301 -1.5507,0.76301 -0.6646,0 -1.4399,-0.29347 -1.4399,-0.76301 l 0,0 0,0 c 0,-0.41085 0.7753,-0.76301 1.4399,-0.76301 0.886,0 1.5507,0.35216 1.5507,0.76301 z m 0,3.11073 0,0 0,0 c 0,0.41085 -0.6647,0.763 -1.5507,0.763 -0.6646,0 -1.4399,-0.35215 -1.4399,-0.763 l 0,0 0,0 c 0,-0.41085 0.7753,-0.76301 1.4399,-0.76301 0.886,0 1.5507,0.35216 1.5507,0.76301 z m 0,3.11073 0,0 0,0 c 0,0.41085 -0.6647,0.76301 -1.5507,0.76301 -0.6646,0 -1.4399,-0.35216 -1.4399,-0.76301 l 0,0 0,0 c 0,-0.46954 0.7753,-0.76301 1.4399,-0.76301 0.886,0 1.5507,0.29347 1.5507,0.76301 z m 0,3.11072 0,0 0,0 c 0,0.41086 -0.6647,0.76302 -1.5507,0.76302 -0.6646,0 -1.4399,-0.35216 -1.4399,-0.76302 l 0,0 0,0 c 0,-0.46953 0.7753,-0.763 1.4399,-0.763 0.886,0 1.5507,0.29347 1.5507,0.763 z m 0,3.11074 0,0 0,0 c 0,0.41085 -0.6647,0.763 -1.5507,0.763 -0.6646,0 -1.4399,-0.35215 -1.4399,-0.763 l 0,0 0,0 c 0,-0.46955 0.7753,-0.8217 1.4399,-0.8217 0.886,0 1.5507,0.35215 1.5507,0.8217 z m 0,3.05203 0,0 0,0 c 0,0.46954 -0.6647,0.8217 -1.5507,0.8217 -0.6646,0 -1.4399,-0.35216 -1.4399,-0.8217 l 0,0 0,0 c 0,-0.41084 0.7753,-0.76301 1.4399,-0.76301 0.886,0 1.5507,0.35217 1.5507,0.76301 z m 0,3.11074 0,0 0,0 c 0,0.46953 -0.6647,0.8217 -1.5507,0.8217 -0.6646,0 -1.4399,-0.35217 -1.4399,-0.8217 l 0,0 0,0 c 0,-0.41085 0.7753,-0.76301 1.4399,-0.76301 0.886,0 1.5507,0.35216 1.5507,0.76301 z m 0,3.11072 0,0 0,0 c 0,0.46955 -0.6647,0.76302 -1.5507,0.76302 -0.6646,0 -1.4399,-0.29347 -1.4399,-0.76302 l 0,0 0,0 c 0,-0.41085 0.7753,-0.763 1.4399,-0.763 0.886,0 1.5507,0.35215 1.5507,0.763 z m 0,3.11074 0,0 0,0 c 0,0.41085 -0.6647,0.76301 -1.5507,0.76301 -0.6646,0 -1.4399,-0.35216 -1.4399,-0.76301 l 0,0 0,0 c 0,-0.41085 0.7753,-0.76302 1.4399,-0.76302 0.886,0 1.5507,0.35217 1.5507,0.76302 z m 0,3.11073 0,0 0,0 c 0,0.41085 -0.6647,0.763 -1.5507,0.763 -0.6646,0 -1.4399,-0.35215 -1.4399,-0.763 l 0,0 0,0 c 0,-0.41086 0.7753,-0.76302 1.4399,-0.76302 0.886,0 1.5507,0.35216 1.5507,0.76302 z m 0,3.11072 0,0 0,0 c 0,0.41085 -0.6647,0.76301 -1.5507,0.76301 -0.6646,0 -1.4399,-0.35216 -1.4399,-0.76301 l 0,0 0,0 c 0,-0.46954 0.7753,-0.763 1.4399,-0.763 0.886,0 1.5507,0.29346 1.5507,0.763 z m 0,3.11073 0,0 0,0 c 0,0.41085 -0.6647,0.76301 -1.5507,0.76301 -0.6646,0 -1.4399,-0.35216 -1.4399,-0.76301 l 0,0 0,0 c 0,-0.46954 0.7753,-0.8217 1.4399,-0.8217 0.886,0 1.5507,0.35216 1.5507,0.8217 z m 0,3.11073 0,0 0,0 c 0,0.41086 -0.6647,0.76301 -1.5507,0.76301 -0.6646,0 -1.4399,-0.35215 -1.4399,-0.76301 l 0,0 0,0 c 0,-0.46954 0.7753,-0.8217 1.4399,-0.8217 0.886,0 1.5507,0.35216 1.5507,0.8217 z"
         style="fill:#000000;fill-opacity:1;fill-rule:evenodd;stroke:none"
         inkscape:connector-curvature="0" />
      <path
         id="path3075"
         d="m 3907.6275,-19.350915 0,0 0,0 c 0,0.470802 -0.5538,0.765052 -1.4399,0.765052 -0.7753,0 -1.4398,-0.29425 -1.4398,-0.765052 l 0,0 0,0 c 0,-0.411949 0.6645,-0.823898 1.4398,-0.823898 0.8861,0 1.4399,0.411949 1.4399,0.823898 z m 0,3.119046 0,0 0,0 c 0,0.411949 -0.5538,0.823906 -1.4399,0.823906 -0.7753,0 -1.4398,-0.411957 -1.4398,-0.823906 l 0,0 0,0 c 0,-0.411949 0.6645,-0.823897 1.4398,-0.823897 0.8861,0 1.4399,0.411948 1.4399,0.823897 z m 0,3.119047 0,0 0,0 c 0,0.411949 -0.5538,0.823898 -1.4399,0.823898 -0.7753,0 -1.4398,-0.411949 -1.4398,-0.823898 l 0,0 0,0 c 0,-0.470794 0.6645,-0.765045 1.4398,-0.765045 0.8861,0 1.4399,0.294251 1.4399,0.765045 z m 0,3.119046 0,0 0,0 c 0,0.411949 -0.5538,0.765053 -1.4399,0.765053 -0.7753,0 -1.4398,-0.353104 -1.4398,-0.765053 l 0,0 0,0 c 0,-0.470801 0.6645,-0.765044 1.4398,-0.765044 0.8861,0 1.4399,0.294243 1.4399,0.765044 z m 0,3.119047 0,0 0,0 c 0,0.411949 -0.5538,0.765052 -1.4399,0.765052 -0.7753,0 -1.4398,-0.353103 -1.4398,-0.765052 l 0,0 0,0 c 0,-0.470802 0.6645,-0.765044 1.4398,-0.765044 0.8861,0 1.4399,0.294242 1.4399,0.765044 z m 0,3.060194 0,0 0,0 c 0,0.470802 -0.5538,0.823897 -1.4399,0.823897 -0.7753,0 -1.4398,-0.353095 -1.4398,-0.823897 l 0,0 0,0 c 0,-0.411949 0.6645,-0.706192 1.4398,-0.706192 0.8861,0 1.4399,0.294243 1.4399,0.706192 z m 0,3.119046 0,0 0,0 c 0,0.470802 -0.5538,0.823898 -1.4399,0.823898 -0.7753,0 -1.4398,-0.353096 -1.4398,-0.823898 l 0,0 0,0 c 0,-0.411949 0.6645,-0.706199 1.4398,-0.706199 0.8861,0 1.4399,0.29425 1.4399,0.706199 z m 0,3.119047 0,0 0,0 c 0,0.470802 -0.5538,0.823905 -1.4399,0.823905 -0.7753,0 -1.4398,-0.353103 -1.4398,-0.823905 l 0,0 0,0 c 0,-0.411949 0.6645,-0.765045 1.4398,-0.765045 0.8861,0 1.4399,0.353096 1.4399,0.765045 z m 0,3.119046 0,0 0,0 c 0,0.411949 -0.5538,0.823898 -1.4399,0.823898 -0.7753,0 -1.4398,-0.411949 -1.4398,-0.823898 l 0,0 0,0 c 0,-0.411948 0.6645,-0.765052 1.4398,-0.765052 0.8861,0 1.4399,0.353104 1.4399,0.765052 z m 0,3.119054 0,0 0,0 c 0,0.411941 -0.5538,0.823898 -1.4399,0.823898 -0.7753,0 -1.4398,-0.411957 -1.4398,-0.823898 l 0,0 0,0 c 0,-0.47081 0.6645,-0.765059 1.4398,-0.765059 0.8861,0 1.4399,0.294249 1.4399,0.765059 z m 0,3.119039 0,0 0,0 c 0,0.411949 -0.5538,0.765052 -1.4399,0.765052 -0.7753,0 -1.4398,-0.353103 -1.4398,-0.765052 l 0,0 0,0 c 0,-0.470802 0.6645,-0.765045 1.4398,-0.765045 0.8861,0 1.4399,0.294243 1.4399,0.765045 z m 0,3.119048 0,0 0,0 c 0,0.411948 -0.5538,0.765043 -1.4399,0.765043 -0.7753,0 -1.4398,-0.353096 -1.4398,-0.765043 l 0,0 0,0 c 0,-0.470803 0.6645,-0.765046 1.4398,-0.765046 0.8861,0 1.4399,0.294243 1.4399,0.765046 z m 0,3.060193 0,0 0,0 c 0,0.47081 -0.5538,0.823898 -1.4399,0.823898 -0.7753,0 -1.4398,-0.353088 -1.4398,-0.823898 l 0,0 0,0 c 0,-0.411949 0.6645,-0.706199 1.4398,-0.706199 0.8861,0 1.4399,0.29425 1.4399,0.706199 z m 0,3.119047 0,0 0,0 c 0,0.470802 -0.5538,0.823905 -1.4399,0.823905 -0.7753,0 -1.4398,-0.353103 -1.4398,-0.823905 l 0,0 0,0 c 0,-0.411941 0.6645,-0.706192 1.4398,-0.706192 0.8861,0 1.4399,0.294251 1.4399,0.706192 z m 0,3.119054 0,0 0,0 c 0,0.470794 -0.5538,0.82389 -1.4399,0.82389 -0.7753,0 -1.4398,-0.353096 -1.4398,-0.82389 l 0,0 0,0 c 0,-0.411957 0.6645,-0.706207 1.4398,-0.706207 0.8861,0 1.4399,0.29425 1.4399,0.706207 z m 0,3.119039 0,0 0,0 c 0,0.411948 -0.5538,0.823897 -1.4399,0.823897 -0.7753,0 -1.4398,-0.411949 -1.4398,-0.823897 l 0,0 0,0 c 0,-0.411949 0.6645,-0.765045 1.4398,-0.765045 0.8861,0 1.4399,0.353096 1.4399,0.765045 z m 0,3.119046 0,0 0,0 c 0,0.411949 -0.5538,0.823906 -1.4399,0.823906 -0.7753,0 -1.4398,-0.411957 -1.4398,-0.823906 l 0,0 0,0 c 0,-0.411949 0.6645,-0.765052 1.4398,-0.765052 0.8861,0 1.4399,0.353103 1.4399,0.765052 z m 0,3.119054 0,0 0,0 c 0,0.411942 -0.5538,0.823898 -1.4399,0.823898 -0.7753,0 -1.4398,-0.411956 -1.4398,-0.823898 l 0,0 0,0 c 0,-0.470809 0.6645,-0.765059 1.4398,-0.765059 0.8861,0 1.4399,0.29425 1.4399,0.765059 z m 0,3.119039 0,0 0,0 c 0,0.411949 -0.5538,0.765053 -1.4399,0.765053 -0.7753,0 -1.4398,-0.353104 -1.4398,-0.765053 l 0,0 0,0 c 0,-0.411956 0.6645,-0.765044 1.4398,-0.765044 0.8861,0 1.4399,0.353088 1.4399,0.765044 z m 0,3.119047 0,0 0,0 c 0,0.411949 -0.5538,0.765052 -1.4399,0.765052 -0.7753,0 -1.4398,-0.353103 -1.4398,-0.765052 l 0,0 0,0 c 0,-0.411949 0.6645,-0.765052 1.4398,-0.765052 0.8861,0 1.4399,0.353103 1.4399,0.765052 z m 0,3.060194 0,0 0,0 c 0,0.470802 -0.5538,0.823897 -1.4399,0.823897 -0.7753,0 -1.4398,-0.353095 -1.4398,-0.823897 l 0,0 0,0 c 0,-0.353096 0.6645,-0.706199 1.4398,-0.706199 0.8861,0 1.4399,0.353103 1.4399,0.706199 z m 0,3.119046 0,0.05878 0,0 c 0,0.411957 -0.5538,0.765052 -1.4399,0.765052 -0.7753,0 -1.4398,-0.353095 -1.4398,-0.765052 l 0,-0.05878 0,0 c 0,-0.353103 0.6645,-0.706199 1.4398,-0.706199 0.8861,0 1.4399,0.353096 1.4399,0.706199 z m 0,3.177892 0,0 0,0 c 0,0.411957 -0.5538,0.76506 -1.4399,0.76506 -0.7753,0 -1.4398,-0.353103 -1.4398,-0.76506 l 0,0 0,0 c 0,-0.411941 0.6645,-0.823897 1.4398,-0.823897 0.8861,0 1.4399,0.411956 1.4399,0.823897 z m 0,3.119055 0,0 0,0 c 0,0.353095 -0.5538,0.765037 -1.4399,0.765037 -0.7753,0 -1.4398,-0.411942 -1.4398,-0.765037 l 0,0 0,0 c 0,-0.411949 0.6645,-0.823906 1.4398,-0.823906 0.8861,0 1.4399,0.411957 1.4399,0.823906 z m 0,3.119039 0,0 0,0 c 0,0.353103 -0.5538,0.765052 -1.4399,0.765052 -0.7753,0 -1.4398,-0.411949 -1.4398,-0.765052 l 0,0 0,0 c 0,-0.470795 0.6645,-0.823898 1.4398,-0.823898 0.8861,0 1.4399,0.353103 1.4399,0.823898 z m 0,3.119046 0,0 0,0 c 0,0.411957 -0.5538,0.706199 -1.4399,0.706199 -0.7753,0 -1.4398,-0.294242 -1.4398,-0.706199 l 0,0 0,0 c 0,-0.470794 0.6645,-0.823897 1.4398,-0.823897 0.8861,0 1.4399,0.353103 1.4399,0.823897 z m 0,3.119054 0,0 0,0 c 0,0.411942 -0.5538,0.706192 -1.4399,0.706192 -0.7753,0 -1.4398,-0.29425 -1.4398,-0.706192 l 0,0 0,0 c 0,-0.470809 0.6645,-0.823905 1.4398,-0.823905 0.8861,0 1.4399,0.353096 1.4399,0.823905 z m 0,3.060186 0,0 0,0 c 0,0.470802 -0.5538,0.76506 -1.4399,0.76506 -0.7753,0 -1.4398,-0.294258 -1.4398,-0.76506 l 0,0 0,0 c 0,-0.411949 0.6645,-0.765044 1.4398,-0.765044 0.8861,0 1.4399,0.353095 1.4399,0.765044 z m 0,3.119053 0,0 0,0 c 0,0.4708 -0.5538,0.76505 -1.4399,0.76505 -0.7753,0 -1.4398,-0.29425 -1.4398,-0.76505 l 0,0 0,0 c 0,-0.41195 0.6645,-0.76505 1.4398,-0.76505 0.8861,0 1.4399,0.3531 1.4399,0.76505 z m 0,3.11904 0,0 0,0 c 0,0.4708 -0.5538,0.76505 -1.4399,0.76505 -0.7753,0 -1.4398,-0.29425 -1.4398,-0.76505 l 0,0 0,0 c 0,-0.41196 0.6645,-0.8239 1.4398,-0.8239 0.8861,0 1.4399,0.41194 1.4399,0.8239 z m 0,3.11905 0,0 0,0 c 0,0.41195 -0.5538,0.76505 -1.4399,0.76505 -0.7753,0 -1.4398,-0.3531 -1.4398,-0.76505 l 0,0 0,0 c 0,-0.41195 0.6645,-0.8239 1.4398,-0.8239 0.8861,0 1.4399,0.41195 1.4399,0.8239 z m 0,3.11904 0,0 0,0 c 0,0.41195 -0.5538,0.76506 -1.4399,0.76506 -0.7753,0 -1.4398,-0.35311 -1.4398,-0.76506 l 0,0 0,0 c 0,-0.41195 0.6645,-0.82389 1.4398,-0.82389 0.8861,0 1.4399,0.41194 1.4399,0.82389 z m 0,3.11905 0,0 0,0 c 0,0.41195 -0.5538,0.70621 -1.4399,0.70621 -0.7753,0 -1.4398,-0.29426 -1.4398,-0.70621 l 0,0 0,0 c 0,-0.4708 0.6645,-0.82389 1.4398,-0.82389 0.8861,0 1.4399,0.35309 1.4399,0.82389 z m 0,3.11905 0,0 0,0 c 0,0.41195 -0.5538,0.7062 -1.4399,0.7062 -0.7753,0 -1.4398,-0.29425 -1.4398,-0.7062 l 0,0 0,0 c 0,-0.4708 0.6645,-0.82391 1.4398,-0.82391 0.8861,0 1.4399,0.35311 1.4399,0.82391 z m 0,3.11904 0,0 0,0 c 0,0.41195 -0.5538,0.7062 -1.4399,0.7062 -0.7753,0 -1.4398,-0.29425 -1.4398,-0.7062 l 0,0 0,0 c 0,-0.4708 0.6645,-0.82389 1.4398,-0.82389 0.8861,0 1.4399,0.35309 1.4399,0.82389 z m 0,3.0602 0,0 0,0 c 0,0.4708 -0.5538,0.76505 -1.4399,0.76505 -0.7753,0 -1.4398,-0.29425 -1.4398,-0.76505 l 0,0 0,0 c 0,-0.41195 0.6645,-0.76505 1.4398,-0.76505 0.8861,0 1.4399,0.3531 1.4399,0.76505 z m 0,3.11905 0,0 0,0 c 0,0.4708 -0.5538,0.76505 -1.4399,0.76505 -0.7753,0 -1.4398,-0.29425 -1.4398,-0.76505 l 0,0 0,0 c 0,-0.41195 0.6645,-0.76506 1.4398,-0.76506 0.8861,0 1.4399,0.35311 1.4399,0.76506 z m 0,3.11905 0,0 0,0 c 0,0.47079 -0.5538,0.76504 -1.4399,0.76504 -0.7753,0 -1.4398,-0.29425 -1.4398,-0.76504 l 0,0 0,0 c 0,-0.41195 0.6645,-0.8239 1.4398,-0.8239 0.8861,0 1.4399,0.41195 1.4399,0.8239 z m 0,3.11904 0,0 0,0 c 0,0.41195 -0.5538,0.76505 -1.4399,0.76505 -0.7753,0 -1.4398,-0.3531 -1.4398,-0.76505 l 0,0 0,0 c 0,-0.41195 0.6645,-0.82391 1.4398,-0.82391 0.8861,0 1.4399,0.41196 1.4399,0.82391 z m 0,3.119051 0,0 0,0 c 0,0.41194 -0.5538,0.76504 -1.4399,0.76504 -0.7753,0 -1.4398,-0.3531 -1.4398,-0.76504 l 0,0 0,0 c 0,-0.47081 0.6645,-0.8239 1.4398,-0.8239 0.8861,0 1.4399,0.35309 1.4399,0.8239 z m 0,3.11905 0,0 0,0 c 0,0.41194 -0.5538,0.70619 -1.4399,0.70619 -0.7753,0 -1.4398,-0.29425 -1.4398,-0.70619 l 0,0 0,0 c 0,-0.47081 0.6645,-0.8239 1.4398,-0.8239 0.8861,0 1.4399,0.35309 1.4399,0.8239 z m 0,3.11903 0,0 0,0 c 0,0.41196 -0.5538,0.76506 -1.4399,0.76506 -0.7753,0 -1.4398,-0.3531 -1.4398,-0.76506 l 0,0 0,0 c 0,-0.47079 0.6645,-0.8239 1.4398,-0.8239 0.8861,0 1.4399,0.35311 1.4399,0.8239 z m 0,3.06021 0,0 0,0 c 0,0.47079 -0.5538,0.8239 -1.4399,0.8239 -0.7753,0 -1.4398,-0.35311 -1.4398,-0.8239 l 0,0 0,0 c 0,-0.41196 0.6645,-0.70621 1.4398,-0.70621 0.8861,0 1.4399,0.29425 1.4399,0.70621 z m 0,3.11904 0,0 0,0 c 0,0.4708 -0.5538,0.8239 -1.4399,0.8239 -0.7753,0 -1.4398,-0.3531 -1.4398,-0.8239 l 0,0 0,0 c 0,-0.41195 0.6645,-0.7062 1.4398,-0.7062 0.8861,0 1.4399,0.29425 1.4399,0.7062 z m 0,3.11905 0,0 0,0 c 0,0.47079 -0.5538,0.82389 -1.4399,0.82389 -0.7753,0 -1.4398,-0.3531 -1.4398,-0.82389 l 0,0 0,0 c 0,-0.41195 0.6645,-0.76506 1.4398,-0.76506 0.8861,0 1.4399,0.35311 1.4399,0.76506 z m 0,3.11904 0,0 0,0 c 0,0.41196 -0.5538,0.8239 -1.4399,0.8239 -0.7753,0 -1.4398,-0.41194 -1.4398,-0.8239 l 0,0 0,0 c 0,-0.41195 0.6645,-0.76505 1.4398,-0.76505 0.8861,0 1.4399,0.3531 1.4399,0.76505 z m 0,3.11904 0,0 0,0 c 0,0.41196 -0.5538,0.82391 -1.4399,0.82391 -0.7753,0 -1.4398,-0.41195 -1.4398,-0.82391 l 0,0 0,0 c 0,-0.47079 0.6645,-0.76504 1.4398,-0.76504 0.8861,0 1.4399,0.29425 1.4399,0.76504 z m 0,3.11905 0,0 0,0 c 0,0.41195 -0.5538,0.8239 -1.4399,0.8239 -0.7753,0 -1.4398,-0.41195 -1.4398,-0.8239 l 0,0 0,0 c 0,-0.4708 0.6645,-0.76505 1.4398,-0.76505 0.8861,0 1.4399,0.29425 1.4399,0.76505 z m 0,3.11905 0,0 0,0 c 0,0.41195 -0.5538,0.76505 -1.4399,0.76505 -0.7753,0 -1.4398,-0.3531 -1.4398,-0.76505 l 0,0 0,0 c 0,-0.4708 0.6645,-0.76505 1.4398,-0.76505 0.8861,0 1.4399,0.29425 1.4399,0.76505 z m 0,3.0602 0,0 0,0 c 0,0.47079 -0.5538,0.82389 -1.4399,0.82389 -0.7753,0 -1.4398,-0.3531 -1.4398,-0.82389 l 0,0 0,0 c 0,-0.41195 0.6645,-0.7062 1.4398,-0.7062 0.8861,0 1.4399,0.29425 1.4399,0.7062 z m 0,3.11905 0,0 0,0 c 0,0.47079 -0.5538,0.8239 -1.4399,0.8239 -0.7753,0 -1.4398,-0.35311 -1.4398,-0.8239 l 0,0 0,0 c 0,-0.41196 0.6645,-0.70621 1.4398,-0.70621 0.8861,0 1.4399,0.29425 1.4399,0.70621 z m 0,3.11903 0,0 0,0 c 0,0.47081 -0.5538,0.82391 -1.4399,0.82391 -0.7753,0 -1.4398,-0.3531 -1.4398,-0.82391 l 0,0 0,0 c 0,-0.41195 0.6645,-0.70619 1.4398,-0.70619 0.8861,0 1.4399,0.29424 1.4399,0.70619 z m 0,3.11905 0,0 0,0 c 0,0.41195 -0.5538,0.8239 -1.4399,0.8239 -0.7753,0 -1.4398,-0.41195 -1.4398,-0.8239 l 0,0 0,0 c 0,-0.41194 0.6645,-0.76505 1.4398,-0.76505 0.8861,0 1.4399,0.35311 1.4399,0.76505 z m 0,3.11905 0,0 0,0 c 0,0.41195 -0.5538,0.8239 -1.4399,0.8239 -0.7753,0 -1.4398,-0.41195 -1.4398,-0.8239 l 0,0 0,0 c 0,-0.41195 0.6645,-0.76505 1.4398,-0.76505 0.8861,0 1.4399,0.3531 1.4399,0.76505 z m 0,3.11904 0,0 0,0 c 0,0.41196 -0.5538,0.8239 -1.4399,0.8239 -0.7753,0 -1.4398,-0.41194 -1.4398,-0.8239 l 0,0 0,0 c 0,-0.47079 0.6645,-0.76504 1.4398,-0.76504 0.8861,0 1.4399,0.29425 1.4399,0.76504 z m 0,3.11905 0,0 0,0 c 0,0.41195 -0.5538,0.76506 -1.4399,0.76506 -0.7753,0 -1.4398,-0.35311 -1.4398,-0.76506 l 0,0 0,0 c 0,-0.4708 0.6645,-0.76504 1.4398,-0.76504 0.8861,0 1.4399,0.29424 1.4399,0.76504 z m 0,3.11905 0,0 0,0 c 0,0.41195 -0.5538,0.76504 -1.4399,0.76504 -0.7753,0 -1.4398,-0.35309 -1.4398,-0.76504 l 0,0 0,0 c 0,-0.47081 0.6645,-0.76506 1.4398,-0.76506 0.8861,0 1.4399,0.29425 1.4399,0.76506 z"
         style="fill:#000000;fill-opacity:1;fill-rule:evenodd;stroke:none"
         inkscape:connector-curvature="0" />
      <g
         id="g3350"
         transform="matrix(0.46347198,0,0,0.46429042,1940.779,-54.346097)">
        <path
           id="path3137"
           d="m 2087.1714,212.42332 95.1851,0 0,39.01608 -95.1851,0 z"
           style="fill:#de0000;fill-opacity:1;fill-rule:evenodd;stroke:none"
           inkscape:connector-curvature="0" />
        <path
           id="path3139"
           d="m 3229.6559,212.42332 95.4236,0 0,39.01608 -95.4236,0 z"
           style="fill:#00ea00;fill-opacity:1;fill-rule:evenodd;stroke:none"
           inkscape:connector-curvature="0" />
        <path
           id="path3145"
           d="m 3986.6981,213.33674 0,-0.91342 0,-0.84818 937.4637,0 0,0.84818 0,0.91342 -937.4637,0 z"
           style="fill:#000000;fill-opacity:1;fill-rule:evenodd;stroke:none"
           inkscape:connector-curvature="0" />
        <path
           id="path3165"
           d="m 2083.1158,212.42332 3.1013,0 3.3399,0 0,39.08132 -3.3399,0 -3.1013,0 0,-39.08132 z"
           style="fill:#000000;fill-opacity:1;fill-rule:evenodd;stroke:none"
           inkscape:connector-curvature="0" />
        <path
           id="path3167"
           d="m 2178.5395,212.42332 3.1012,0 3.3399,0 0,39.08132 -3.3399,0 -3.1012,0 0,-39.08132 z"
           style="fill:#000000;fill-opacity:1;fill-rule:evenodd;stroke:none"
           inkscape:connector-curvature="0" />
        <path
           id="path3169"
           d="m 2086.2171,252.41806 0,-0.91342 0,-0.84817 95.4236,0 0,0.84817 0,0.91342 -95.4236,0 z"
           style="fill:#000000;fill-opacity:1;fill-rule:evenodd;stroke:none"
           inkscape:connector-curvature="0" />
        <path
           id="path3171"
           d="m 3226.5546,212.42332 3.1013,0 3.3398,0 0,39.08132 -3.3398,0 -3.1013,0 0,-39.08132 z"
           style="fill:#000000;fill-opacity:1;fill-rule:evenodd;stroke:none"
           inkscape:connector-curvature="0" />
        <path
           id="path3173"
           d="m 3322.2168,212.42332 3.1013,0 3.3398,0 0,39.08132 -3.3398,0 -3.1013,0 0,-39.08132 z"
           style="fill:#000000;fill-opacity:1;fill-rule:evenodd;stroke:none"
           inkscape:connector-curvature="0" />
        <path
           id="path3175"
           d="m 3229.6559,252.41806 0,-0.91342 0,-0.84817 95.6622,0 0,0.84817 0,0.91342 -95.6622,0 z"
           style="fill:#000000;fill-opacity:1;fill-rule:evenodd;stroke:none"
           inkscape:connector-curvature="0" />
        <path
           id="path3177"
           d="m 2180.7278,213.33674 0,-0.91342 0,-0.84818 1048.9842,0 0,0.84818 0,0.91342 -1048.9842,0 z"
           style="fill:#000000;fill-opacity:1;fill-rule:evenodd;stroke:none"
           inkscape:connector-curvature="0" />
        <path
           id="path3181"
           d="m 724.17811,213.33674 0,-0.91342 0,-0.84818 1362.08039,0 0,0.84818 0,0.91342 -1362.08039,0 z"
           style="fill:#000000;fill-opacity:1;fill-rule:evenodd;stroke:none"
           inkscape:connector-curvature="0" />
        <path
           inkscape:connector-curvature="0"
           style="fill:#00ea00;fill-opacity:1;fill-rule:evenodd;stroke:none"
           d="m 3890.4539,212.42332 95.4236,0 0,39.01608 -95.4236,0 z"
           id="path4303" />
        <path
           id="path3185"
           d="m 3890.4093,212.42332 3.1013,0 3.3398,0 0,39.08132 -3.3398,0 -3.1013,0 0,-39.08132 z"
           style="fill:#000000;fill-opacity:1;fill-rule:evenodd;stroke:none"
           inkscape:connector-curvature="0" />
        <path
           id="path3187"
           d="m 3985.833,212.42332 3.1012,0 3.3399,0 0,39.08132 -3.3399,0 -3.1012,0 0,-39.08132 z"
           style="fill:#000000;fill-opacity:1;fill-rule:evenodd;stroke:none"
           inkscape:connector-curvature="0" />
        <path
           id="path3189"
           d="m 3893.5106,252.41806 0,-0.91342 0,-0.84817 95.4236,0 0,0.84817 0,0.91342 -95.4236,0 z"
           style="fill:#000000;fill-opacity:1;fill-rule:evenodd;stroke:none"
           inkscape:connector-curvature="0" />
        <path
           id="path3191"
           d="m 3321.6658,213.33674 0,-0.91342 0,-0.84818 573.3171,0 0,0.84818 0,0.91342 -573.3171,0 z"
           style="fill:#000000;fill-opacity:1;fill-rule:evenodd;stroke:none"
           inkscape:connector-curvature="0" />
        <path
           inkscape:connector-curvature="0"
           style="fill:#000000;fill-opacity:1;fill-rule:evenodd;stroke:none"
           d="m 724.17811,285.83765 0,-0.91342 0,-0.84818 1988.79459,0 0,0.84818 0,0.91342 -1988.79459,0 z"
           id="path4217" />
      </g>
      <g
         id="g3383"
         transform="matrix(0.46429042,0,0,0.46429042,1936.7488,-52.179411)">
        <path
           inkscape:connector-curvature="0"
           style="fill:#00ea00;fill-opacity:1;fill-rule:evenodd;stroke:none"
           d="m 2718.291,280.42332 95.1851,0 0,39.01608 -95.1851,0 z"
           id="path3199" />
        <path
           inkscape:connector-curvature="0"
           style="fill:#000000;fill-opacity:1;fill-rule:evenodd;stroke:none"
           d="m 2714.2354,280.42332 3.1013,0 3.3399,0 0,39.08132 -3.3399,0 -3.1013,0 0,-39.08132 z"
           id="path3227" />
        <path
           inkscape:connector-curvature="0"
           style="fill:#000000;fill-opacity:1;fill-rule:evenodd;stroke:none"
           d="m 2809.6591,280.42332 3.1012,0 3.3399,0 0,39.08132 -3.3399,0 -3.1012,0 0,-39.08132 z"
           id="path3229" />
        <path
           inkscape:connector-curvature="0"
           style="fill:#000000;fill-opacity:1;fill-rule:evenodd;stroke:none"
           d="m 2717.3367,320.41806 0,-0.91342 0,-0.84817 95.4236,0 0,0.84817 0,0.91342 -95.4236,0 z"
           id="path3231" />
        <path
           inkscape:connector-curvature="0"
           style="fill:#000000;fill-opacity:1;fill-rule:evenodd;stroke:none"
           d="m 2810.8432,281.33674 0,-0.91342 0,-0.84818 2114.9416,0 0,0.84818 0,0.91342 -2114.9416,0 z"
           id="path3239" />
      </g>
      <g
         id="g3416"
         transform="matrix(0.46429042,0,0,0.46429042,1936.7488,-50.012718)">
        <path
           id="path3257"
           d="m 921.85577,348.42332 95.42373,0 0,39.01608 -95.42373,0 z"
           style="fill:#de0000;fill-opacity:1;fill-rule:evenodd;stroke:none"
           inkscape:connector-curvature="0" />
        <path
           id="path3261"
           d="m 2989.4751,348.42332 95.1851,0 0,39.01608 -95.1851,0 z"
           style="fill:#00ea00;fill-opacity:1;fill-rule:evenodd;stroke:none"
           inkscape:connector-curvature="0" />
        <path
           id="path3263"
           d="m 4087.8161,348.42332 95.4236,0 0,39.01608 -95.4236,0 z"
           style="fill:#00ea00;fill-opacity:1;fill-rule:evenodd;stroke:none"
           inkscape:connector-curvature="0" />
        <path
           id="path3265"
           d="m 4355.6435,348.42332 95.1851,0 0,38.95083 -95.1851,0 z"
           style="fill:#de0000;fill-opacity:1;fill-rule:evenodd;stroke:none"
           inkscape:connector-curvature="0" />
        <path
           id="path3267"
           d="m 1017.518,349.33674 0,-0.91342 0,-0.84818 238.3205,0 0,0.84818 0,0.91342 -238.3205,0 z"
           style="fill:#000000;fill-opacity:1;fill-rule:evenodd;stroke:none"
           inkscape:connector-curvature="0" />
        <path
           id="path3269"
           d="m 4453.5211,349.33674 0,-0.91342 0,-0.84818 470.6407,0 0,0.84818 0,0.91342 -470.6407,0 z"
           style="fill:#000000;fill-opacity:1;fill-rule:evenodd;stroke:none"
           inkscape:connector-curvature="0" />
        <path
           id="path3271"
           d="m 918.7545,348.42332 3.10127,0 3.33983,0 0,39.08132 -3.33983,0 -3.10127,0 0,-39.08132 z"
           style="fill:#000000;fill-opacity:1;fill-rule:evenodd;stroke:none"
           inkscape:connector-curvature="0" />
        <path
           id="path3273"
           d="m 1014.4167,348.42332 3.1013,0 3.3398,0 0,39.08132 -3.3398,0 -3.1013,0 0,-39.08132 z"
           style="fill:#000000;fill-opacity:1;fill-rule:evenodd;stroke:none"
           inkscape:connector-curvature="0" />
        <path
           id="path3275"
           d="m 921.85577,388.41806 0,-0.91342 0,-0.84817 95.66223,0 0,0.84817 0,0.91342 -95.66223,0 z"
           style="fill:#000000;fill-opacity:1;fill-rule:evenodd;stroke:none"
           inkscape:connector-curvature="0" />
        <path
           id="path3277"
           d="m 1252.7373,348.42332 3.1012,0 3.3399,0 0,39.08132 -3.3399,0 -3.1012,0 0,-39.08132 z"
           style="fill:#000000;fill-opacity:1;fill-rule:evenodd;stroke:none"
           inkscape:connector-curvature="0" />
        <path
           id="path3279"
           d="m 1348.3995,348.42332 3.1012,0 3.3398,0 0,39.08132 -3.3398,0 -3.1012,0 0,-39.08132 z"
           style="fill:#000000;fill-opacity:1;fill-rule:evenodd;stroke:none"
           inkscape:connector-curvature="0" />
        <path
           id="path3281"
           d="m 1255.8385,388.41806 0,-0.91342 0,-0.84817 95.6622,0 0,0.84817 0,0.91342 -95.6622,0 z"
           style="fill:#000000;fill-opacity:1;fill-rule:evenodd;stroke:none"
           inkscape:connector-curvature="0" />
        <path
           id="path3289"
           d="m 2985.4195,348.42332 3.1013,0 3.3399,0 0,39.08132 -3.3399,0 -3.1013,0 0,-39.08132 z"
           style="fill:#000000;fill-opacity:1;fill-rule:evenodd;stroke:none"
           inkscape:connector-curvature="0" />
        <path
           id="path3291"
           d="m 3080.8432,348.42332 3.1012,0 3.3399,0 0,39.08132 -3.3399,0 -3.1012,0 0,-39.08132 z"
           style="fill:#000000;fill-opacity:1;fill-rule:evenodd;stroke:none"
           inkscape:connector-curvature="0" />
        <path
           id="path3293"
           d="m 2988.5208,388.41806 0,-0.91342 0,-0.84817 95.4236,0 0,0.84817 0,0.91342 -95.4236,0 z"
           style="fill:#000000;fill-opacity:1;fill-rule:evenodd;stroke:none"
           inkscape:connector-curvature="0" />
        <path
           id="path3295"
           d="m 4084.7148,348.42332 3.1013,0 3.3398,0 0,39.08132 -3.3398,0 -3.1013,0 0,-39.08132 z"
           style="fill:#000000;fill-opacity:1;fill-rule:evenodd;stroke:none"
           inkscape:connector-curvature="0" />
        <path
           id="path3297"
           d="m 4180.377,348.42332 3.1013,0 3.3398,0 0,39.08132 -3.3398,0 -3.1013,0 0,-39.08132 z"
           style="fill:#000000;fill-opacity:1;fill-rule:evenodd;stroke:none"
           inkscape:connector-curvature="0" />
        <path
           id="path3299"
           d="m 4087.8161,388.41806 0,-0.91342 0,-0.84817 95.6622,0 0,0.84817 0,0.91342 -95.6622,0 z"
           style="fill:#000000;fill-opacity:1;fill-rule:evenodd;stroke:none"
           inkscape:connector-curvature="0" />
        <path
           id="path3301"
           d="m 3084.7787,349.33674 0,-0.91342 0,-0.84818 1004.3922,0 0,0.84818 0,0.91342 -1004.3922,0 z"
           style="fill:#000000;fill-opacity:1;fill-rule:evenodd;stroke:none"
           inkscape:connector-curvature="0" />
        <path
           id="path3303"
           d="m 731.72416,349.33674 0,-0.91342 0,-0.84818 190.13161,0 0,0.84818 0,0.91342 -190.13161,0 z"
           style="fill:#000000;fill-opacity:1;fill-rule:evenodd;stroke:none"
           inkscape:connector-curvature="0" />
        <path
           id="path3305"
           d="m 1353.4894,349.33674 0,-0.91342 0,-0.84818 1640.5218,0 0,0.84818 0,0.91342 -1640.5218,0 z"
           style="fill:#000000;fill-opacity:1;fill-rule:evenodd;stroke:none"
           inkscape:connector-curvature="0" />
        <path
           id="path3309"
           d="m 4352.5422,348.42332 3.1013,0 3.3398,0 0,39.08132 -3.3398,0 -3.1013,0 0,-39.08132 z"
           style="fill:#000000;fill-opacity:1;fill-rule:evenodd;stroke:none"
           inkscape:connector-curvature="0" />
        <path
           id="path3311"
           d="m 4447.9659,348.42332 3.1012,0 3.3399,0 0,39.08132 -3.3399,0 -3.1012,0 0,-39.08132 z"
           style="fill:#000000;fill-opacity:1;fill-rule:evenodd;stroke:none"
           inkscape:connector-curvature="0" />
        <path
           id="path3313"
           d="m 4355.6435,388.41806 0,-0.91342 0,-0.84817 95.4236,0 0,0.84817 0,0.91342 -95.4236,0 z"
           style="fill:#000000;fill-opacity:1;fill-rule:evenodd;stroke:none"
           inkscape:connector-curvature="0" />
        <path
           id="path3315"
           d="m 4184.8331,349.33674 0,-0.91342 0,-0.84818 169.5625,0 0,0.84818 0,0.91342 -169.5625,0 z"
           style="fill:#000000;fill-opacity:1;fill-rule:evenodd;stroke:none"
           inkscape:connector-curvature="0" />
        <text
           xml:space="preserve"
           style="font-size:76.57285309px;font-style:normal;font-variant:normal;font-weight:normal;font-stretch:normal;line-height:125%;letter-spacing:0px;word-spacing:0px;fill:#000000;fill-opacity:1;stroke:none;font-family:Verdana;-inkscape-font-specification:Verdana"
           x="169.3168"
           y="50.134113"
           id="text4221"
           sodipodi:linespacing="125%"
           transform="scale(1.9143213,0.52237836)"><tspan
             sodipodi:role="line"
             id="tspan4223"
             x="169.3168"
             y="50.134113">Start</tspan></text>
        <text
           transform="scale(1.9143213,0.52237835)"
           sodipodi:linespacing="125%"
           id="text4237"
           y="276.02408"
           x="303.31934"
           style="font-size:76.57285309px;font-style:normal;font-variant:normal;font-weight:normal;font-stretch:normal;line-height:125%;letter-spacing:0px;word-spacing:0px;fill:#000000;fill-opacity:1;stroke:none;font-family:Verdana;-inkscape-font-specification:Verdana"
           xml:space="preserve"><tspan
             y="276.02408"
             x="303.31934"
             id="tspan4239"
             sodipodi:role="line">A</tspan></text>
        <text
           xml:space="preserve"
           style="font-size:76.57285309px;font-style:normal;font-variant:normal;font-weight:normal;font-stretch:normal;line-height:125%;letter-spacing:0px;word-spacing:0px;fill:#000000;fill-opacity:1;stroke:none;font-family:Verdana;-inkscape-font-specification:Verdana"
           x="303.31934"
           y="413.85526"
           id="text4241"
           sodipodi:linespacing="125%"
           transform="scale(1.9143213,0.52237835)"><tspan
             sodipodi:role="line"
             id="tspan4243"
             x="303.31934"
             y="413.85526">B</tspan></text>
        <text
           transform="scale(1.9143213,0.52237835)"
           sodipodi:linespacing="125%"
           id="text4245"
           y="555.51471"
           x="303.31934"
           style="font-size:76.57285309px;font-style:normal;font-variant:normal;font-weight:normal;font-stretch:normal;line-height:125%;letter-spacing:0px;word-spacing:0px;fill:#000000;fill-opacity:1;stroke:none;font-family:Verdana;-inkscape-font-specification:Verdana"
           xml:space="preserve"><tspan
             y="555.51471"
             x="303.31934"
             id="tspan4247"
             sodipodi:role="line">C</tspan></text>
        <text
           xml:space="preserve"
           style="font-size:76.57285309px;font-style:normal;font-variant:normal;font-weight:normal;font-stretch:normal;line-height:125%;letter-spacing:0px;word-spacing:0px;fill:#000000;fill-opacity:1;stroke:none;font-family:Verdana;-inkscape-font-specification:Verdana"
           x="303.31934"
           y="693.34479"
           id="text4249"
           sodipodi:linespacing="125%"
           transform="scale(1.9143213,0.52237835)"><tspan
             sodipodi:role="line"
             id="tspan4251"
             x="303.31934"
             y="693.34479">D</tspan></text>
        <text
           xml:space="preserve"
           style="font-size:42.0114212px;font-style:normal;font-variant:normal;font-weight:normal;font-stretch:normal;line-height:125%;letter-spacing:0px;word-spacing:0px;fill:#000000;fill-opacity:1;stroke:none;font-family:Verdana;-inkscape-font-specification:Verdana"
           x="868.37061"
           y="770.57196"
           id="text4221-1"
           sodipodi:linespacing="125%"
           transform="scale(1.9143213,0.52237835)"><tspan
             sodipodi:role="line"
             id="tspan4223-7"
             x="868.37061"
             y="770.57196">channel[i].start</tspan></text>
        <text
           transform="scale(1.9143213,0.52237835)"
           sodipodi:linespacing="125%"
           id="text4295"
           y="918.7099"
           x="1369.036"
           style="font-size:42.0114212px;font-style:normal;font-variant:normal;font-weight:normal;font-stretch:normal;line-height:125%;letter-spacing:0px;word-spacing:0px;fill:#000000;fill-opacity:1;stroke:none;font-family:Verdana;-inkscape-font-specification:Verdana"
           xml:space="preserve"><tspan
             y="918.7099"
             x="1369.036"
             id="tspan4297"
             sodipodi:role="line">channel[i].stop</tspan></text>
        <path
           style="fill:none;stroke:#000000;stroke-width:0.60000002;stroke-linecap:butt;stroke-linejoin:miter;stroke-miterlimit:4;stroke-opacity:1;stroke-dasharray:none;marker-start:url(#Arrow2Lstart-9);marker-mid:none;marker-end:url(#Arrow2Lend-8)"
           d="m 237.38585,656.38238 84.34774,0"
           id="path5349"
           inkscape:connector-curvature="0"
           transform="matrix(7.8929604,0,0,2.1538243,-234.94716,-988.91798)" />
        <path
           style="fill:none;stroke:#000000;stroke-width:0.60000002;stroke-linecap:butt;stroke-linejoin:miter;stroke-miterlimit:4;stroke-opacity:1;stroke-dasharray:none;marker-start:url(#Arrow2Lstart-9);marker-end:url(#Arrow2Lend-8)"
           d="m 236.3757,666.48391 330.82495,0"
           id="path6119"
           inkscape:connector-curvature="0"
           transform="matrix(7.8929604,0,0,2.1538243,-234.94716,-988.91798)" />
      </g>
      <rect
         style="fill:none;stroke:none"
         id="rect6505"
         width="2141.5093"
         height="231.83"
         x="2084.2869"
         y="-53.437859" />
    </g>
  </g>
</svg>
