<?xml version="1.0" encoding="utf-8"?>
<!-- Generator: Adobe Illustrator 25.2.0, SVG Export Plug-In . SVG Version: 6.00 Build 0)  -->
<svg version="1.1"
	 id="svg2985" inkscape:version="0.92.3 (2405546, 2018-03-11)" sodipodi:docname="Ndigo_schematic.svg" xmlns:cc="http://creativecommons.org/ns#" xmlns:dc="http://purl.org/dc/elements/1.1/" xmlns:inkscape="http://www.inkscape.org/namespaces/inkscape" xmlns:rdf="http://www.w3.org/1999/02/22-rdf-syntax-ns#" xmlns:sodipodi="http://sodipodi.sourceforge.net/DTD/sodipodi-0.dtd" xmlns:svg="http://www.w3.org/2000/svg"
	 xmlns="http://www.w3.org/2000/svg" xmlns:xlink="http://www.w3.org/1999/xlink" x="0px" y="0px" viewBox="0 0 6400 3093.3"
	 style="enable-background:new 0 0 6400 3093.3;" xml:space="preserve">
<style type="text/css">
	.st0{fill-rule:evenodd;clip-rule:evenodd;fill:#323232;}
	.st1{fill-rule:evenodd;clip-rule:evenodd;fill:#466B43;}
	
		.st2{fill-rule:evenodd;clip-rule:evenodd;fill:#323232;stroke:#323232;stroke-width:12.48;stroke-linejoin:round;stroke-miterlimit:4.2667;}
	.st3{fill:#DADADA;stroke:#DADADA;stroke-width:2.4097;stroke-linecap:round;stroke-linejoin:round;}
	
		.st4{fill-rule:evenodd;clip-rule:evenodd;fill:#DADADA;stroke:#DADADA;stroke-width:12.48;stroke-linejoin:round;stroke-miterlimit:4.2667;}
	.st5{font-family:'AvenirNext-DemiBold';}
	.st6{font-size:133.412px;}
	.st7{fill:#323232;stroke:#323232;stroke-width:2.4097;stroke-linecap:round;stroke-linejoin:round;}
	.st8{fill:#646464;stroke:#000000;stroke-width:2.4097;stroke-linecap:round;stroke-linejoin:round;}
	.st9{fill-rule:evenodd;clip-rule:evenodd;}
	.st10{fill:#FFFFFF;}
	.st11{fill:#323232;stroke:#323232;stroke-width:2.4105;stroke-linecap:round;stroke-linejoin:round;}
	.st12{font-family:'Arial-BoldMT';}
	.st13{fill:none;stroke:#DADADA;stroke-width:8.3722;stroke-miterlimit:4.2667;}
	.st14{fill:none;stroke:#323232;stroke-width:56.2133;stroke-linecap:round;stroke-linejoin:round;stroke-miterlimit:4.2667;}
	.st15{fill:none;stroke:#DADADA;stroke-width:56.2133;stroke-linecap:round;stroke-linejoin:round;stroke-miterlimit:4.2667;}
	.st16{fill:none;stroke:#DADADA;stroke-width:8.3919;stroke-miterlimit:4.2667;}
	.st17{fill:#BBB134;stroke:#C6C14C;stroke-width:0.6691;stroke-miterlimit:4.2667;}
	.st18{fill:#BBB134;stroke:#C6C14C;stroke-width:0.6714;stroke-miterlimit:4.2667;}
	.st19{fill:#BBB134;stroke:#C6C14C;stroke-width:0.7181;stroke-miterlimit:4.2667;}
</style>
<sodipodi:namedview  bordercolor="#666666" borderopacity="1" fit-margin-bottom="0" fit-margin-left="0" fit-margin-right="0" fit-margin-top="0" gridtolerance="10" guidetolerance="10" id="namedview3064" inkscape:current-layer="svg2985" inkscape:cx="3888.9318" inkscape:cy="1395.0304" inkscape:guide-bbox="true" inkscape:pageopacity="0" inkscape:pageshadow="2" inkscape:window-height="1417" inkscape:window-maximized="1" inkscape:window-width="2498" inkscape:window-x="54" inkscape:window-y="301" inkscape:zoom="0.24723845" objecttolerance="10" pagecolor="#ffffff" showgrid="false" showguides="true">
	</sodipodi:namedview>
<path id="path3989" inkscape:connector-curvature="0" sodipodi:nodetypes="cccccssccsscccccccccc" class="st0" d="M3361.8,2758.7
	h-354.3l-557.5,2.6l1.3,194.1l-222.5-0.4c0,0-1.2-129.7-1.2-196.3c0-22.5-31.8-23.5-31.8,0c0,103.4-0.1,196.3-0.1,196.3l-252.1,1.1
	c0,0-1.8-83.2-2.2-197.4c-0.1-28.4-85.7-28.4-85.3,0c0.5,43.8,0.4,135.3,0.4,135.3H1671l-2.3-134.4l-78.3-0.9h-354.3H527.3v-2551
	h5669.1v2551L3361.8,2758.7L3361.8,2758.7z"/>
<path id="path2996" inkscape:connector-curvature="0" sodipodi:nodetypes="cccccssccsscccccccccc" class="st1" d="M3329.8,2724.6
	h-354.3l-557.5,2.6l1.3,194.1l-222.5-0.4c0,0-1.2-129.7-1.2-196.3c0-22.5-31.8-23.5-31.8,0c0,103.4-0.1,196.3-0.1,196.3l-252.1,1.1
	c0,0-1.8-83.2-2.2-197.4c-0.1-28.4-85.7-28.4-85.3,0c0.5,43.8,0.4,135.3,0.4,135.3H1639l-2.3-134.4l-78.3-0.9h-354.3H495.3v-2551
	h5669.1v2551L3329.8,2724.6L3329.8,2724.6z"/>
<path id="path3897" inkscape:connector-curvature="0" class="st2" d="M609,2262.9H325.5v-141.7h566.9v141.7H609z"/>
<ellipse id="path3899" class="st3" cx="304.3" cy="2172.2" rx="16.4" ry="75.3"/>
<path id="path3901" inkscape:connector-curvature="0" class="st4" d="M589.8,2243.7H306.3V2102h566.9v141.7H589.8z"/>
<text id="text3903" transform="matrix(1 0 0 1 635.8818 2211.6621)" class="st5 st6">B</text>
<ellipse id="path3905" class="st7" cx="895.3" cy="2192" rx="16.4" ry="76.8"/>
<ellipse id="path3907" class="st8" cx="878.2" cy="2172.8" rx="16.4" ry="76.8"/>
<path id="path3993" inkscape:connector-curvature="0" class="st0" d="M2368.9,645.7h-340.5V472.2h681v173.5H2368.9z"/>
<path id="path3040" inkscape:connector-curvature="0" class="st9" d="M2347.5,624.3H2007V450.9h681v173.5h-340.5V624.3z"/>
<path id="path3991" inkscape:connector-curvature="0" class="st0" d="M4260.4,370H3345V114.3h1830.7V370H4260.4z"/>
<path id="path3044" inkscape:connector-curvature="0" class="st9" d="M4239.1,344.4h-915.4V88.7h1830.7v255.7H4239.1z"/>
<text id="text3050" transform="matrix(1 0 0 1 4154.4111 253.5708)" class="st10 st5 st6">J12</text>
<text id="text3060" transform="matrix(1 0 0 1 2262.8857 580.5371)" class="st10 st5 st6">J25</text>
<path id="path3789" inkscape:connector-curvature="0" class="st2" d="M609,759.6H325.5V617.9h566.9v141.7L609,759.6L609,759.6z"/>
<ellipse id="path3793" class="st3" cx="304.3" cy="668.9" rx="16.4" ry="75.3"/>
<path id="path3034" inkscape:connector-curvature="0" class="st4" d="M589.8,740.4H306.3V598.7h566.9v141.7H589.8z"/>
<text id="text3056" transform="matrix(1 0 0 1 640.833 712.9492)" class="st5 st6">S</text>
<ellipse id="path3795" class="st11" cx="895.3" cy="688.7" rx="16.4" ry="76.8"/>
<ellipse id="path3791" class="st8" cx="878.2" cy="669.5" rx="16.4" ry="76.8"/>
<text id="text3995" transform="matrix(1 0 0 1 650.3643 1990.8154)" class="st12 st6">S</text>
<path id="path3853" inkscape:connector-curvature="0" class="st2" d="M609,2039.6H325.5v-141.7h566.9v141.7H609z"/>
<ellipse id="path3855" class="st3" cx="304.3" cy="1948.9" rx="16.4" ry="75.3"/>
<path id="path3857" inkscape:connector-curvature="0" class="st4" d="M589.8,2020.4H306.3v-141.7h566.9v141.7H589.8z"/>
<ellipse id="path3861" class="st7" cx="895.3" cy="1968.7" rx="16.4" ry="76.8"/>
<ellipse id="path3863" class="st8" cx="878.2" cy="1949.5" rx="16.4" ry="76.8"/>
<path id="path3865" inkscape:connector-curvature="0" class="st13" d="M528.5,1872.7v153.7"/>
<path id="path3915" inkscape:connector-curvature="0" class="st2" d="M609,2486.2H325.5v-141.7h566.9v141.7H609z"/>
<ellipse id="path3917" class="st3" cx="304.3" cy="2395.5" rx="16.4" ry="75.3"/>
<path id="path3919" inkscape:connector-curvature="0" class="st4" d="M589.8,2467H306.3v-141.7h566.9V2467H589.8z"/>
<text id="text3921" transform="matrix(1 0 0 1 639.334 2434.9512)" class="st5 st6">C</text>
<ellipse id="path3923" class="st7" cx="895.3" cy="2415.3" rx="16.4" ry="76.8"/>
<ellipse id="path3925" class="st8" cx="878.2" cy="2396.1" rx="16.4" ry="76.8"/>
<path id="path3933" inkscape:connector-curvature="0" class="st2" d="M609,2709.5H325.5v-141.7h566.9v141.7H609z"/>
<ellipse id="path3935" class="st3" cx="304.3" cy="2618.8" rx="16.4" ry="75.3"/>
<path id="path3937" inkscape:connector-curvature="0" class="st4" d="M589.8,2690.3H306.3v-141.7h566.9v141.7H589.8z"/>
<text id="text3939" transform="matrix(1 0 0 1 636.0117 2658.2393)" class="st5 st6">D</text>
<ellipse id="path3941" class="st7" cx="895.3" cy="2638.6" rx="16.4" ry="76.8"/>
<ellipse id="path3943" class="st8" cx="878.2" cy="2619.4" rx="16.4" ry="76.8"/>
<path id="path3787" inkscape:connector-curvature="0" sodipodi:nodetypes="ccc" class="st14" d="M506.7,3024.1L511,332H178.8"/>
<path id="path3909" inkscape:connector-curvature="0" class="st13" d="M532.8,2096v153.7"/>
<path id="path3017" inkscape:connector-curvature="0" sodipodi:nodetypes="ccc" class="st15" d="M487.5,3007l4.3-2692.1H159.6"/>
<path id="path3805" inkscape:connector-curvature="0" class="st13" d="M537.1,592.7v153.7"/>
<path id="path3927" inkscape:connector-curvature="0" class="st13" d="M532.8,2319.3V2473"/>
<path id="path3945" inkscape:connector-curvature="0" class="st13" d="M532.8,2542.6v153.7"/>
<path id="path3977" inkscape:connector-curvature="0" class="st16" d="M534.2,1872v154.5"/>
<rect id="rect3979" x="2195.8" y="2821.3" class="st17" width="221.9" height="98.5"/>
<rect id="rect3981" x="2195.8" y="2821.3" class="st18" width="223.4" height="98.5"/>
<rect id="rect3983" x="1910" y="2821.4" class="st19" width="253" height="99.6"/>
<text id="text3903-1" transform="matrix(1 0 0 1 645.6533 1997.0752)" class="st5 st6">A</text>
<path id="path3993-5" inkscape:connector-curvature="0" class="st0" d="M5645.2,485.7h-340.5V312.2h681v173.5H5645.2z"/>
<path id="path3040-0" inkscape:connector-curvature="0" class="st9" d="M5623.8,464.3h-340.5V290.9h681v173.5h-340.5V464.3z"/>
<text id="text3060-3" transform="matrix(1 0 0 1 5539.1816 420.5361)" class="st10 st5 st6">J6</text>
</svg>
