<?xml version="1.0" encoding="utf-8"?>
<!-- Generator: Adobe Illustrator 25.2.0, SVG Export Plug-In . SVG Version: 6.00 Build 0)  -->
<svg version="1.1" id="Ebene_1" xmlns="http://www.w3.org/2000/svg" xmlns:xlink="http://www.w3.org/1999/xlink" x="0px" y="0px"
	 viewBox="0 0 6400 3093.3" style="enable-background:new 0 0 6400 3093.3;" xml:space="preserve">
<style type="text/css">
	.st0{fill-rule:evenodd;clip-rule:evenodd;fill:#323232;}
	.st1{fill-rule:evenodd;clip-rule:evenodd;fill:#376EB5;}
	
		.st2{fill-rule:evenodd;clip-rule:evenodd;fill:#323232;stroke:#323232;stroke-width:12.48;stroke-linejoin:round;stroke-miterlimit:4.2667;}
	.st3{fill-rule:evenodd;clip-rule:evenodd;fill:url(#path3034_10_);}
	.st4{fill:#323232;stroke:#323232;stroke-width:2.4097;stroke-linecap:round;stroke-linejoin:round;}
	.st5{fill:#646464;stroke:#000000;stroke-width:2.4097;stroke-linecap:round;stroke-linejoin:round;}
	.st6{fill-rule:evenodd;clip-rule:evenodd;}
	.st7{fill-rule:evenodd;clip-rule:evenodd;fill:url(#path3034_11_);}
	.st8{fill:#323232;stroke:#323232;stroke-width:1.4293;stroke-linecap:round;stroke-linejoin:round;stroke-miterlimit:4.2667;}
	.st9{fill:#646464;stroke:#000000;stroke-width:1.4289;stroke-linecap:round;stroke-linejoin:round;stroke-miterlimit:4.2667;}
	.st10{fill-rule:evenodd;clip-rule:evenodd;fill:url(#path3034_12_);}
	.st11{fill-rule:evenodd;clip-rule:evenodd;fill:url(#path3034_13_);}
	.st12{fill-rule:evenodd;clip-rule:evenodd;fill:url(#path3034_14_);}
	.st13{fill:#BBB134;stroke:#C6C14C;stroke-width:0.6691;stroke-miterlimit:4.2667;}
	.st14{fill:#BBB134;stroke:#C6C14C;stroke-width:0.6714;stroke-miterlimit:4.2667;}
	.st15{fill:#BBB134;stroke:#C6C14C;stroke-width:0.7181;stroke-miterlimit:4.2667;}
	.st16{fill:#323232;stroke:#323232;stroke-width:1.4289;stroke-linecap:round;stroke-linejoin:round;stroke-miterlimit:4.2667;}
	.st17{fill-rule:evenodd;clip-rule:evenodd;fill:url(#path3034_15_);}
	.st18{fill-rule:evenodd;clip-rule:evenodd;fill:url(#path3034_16_);}
	.st19{fill-rule:evenodd;clip-rule:evenodd;fill:url(#path3034_17_);}
	.st20{fill-rule:evenodd;clip-rule:evenodd;fill:url(#path3034_18_);}
	.st21{fill:url(#path3793_22_);}
	.st22{fill:none;stroke:#DADADA;stroke-width:8.3722;stroke-miterlimit:4.2667;}
	.st23{fill:url(#path3793_23_);}
	.st24{fill-rule:evenodd;clip-rule:evenodd;fill:url(#path3034_19_);}
	.st25{fill:url(#path3793_24_);}
	.st26{fill:none;stroke:#323232;stroke-width:56.2133;stroke-linecap:round;stroke-linejoin:round;stroke-miterlimit:4.2667;}
	.st27{fill:none;stroke:#DADADA;stroke-width:56.2133;stroke-linecap:round;stroke-linejoin:round;stroke-miterlimit:4.2667;}
	.st28{fill:none;stroke:#DADADA;stroke-width:8.3919;stroke-miterlimit:4.2667;}
	.st29{font-family:'AvenirNext-DemiBold';}
	.st30{font-size:96px;}
	.st31{fill:#FFFFFF;}
	.st32{fill-rule:evenodd;clip-rule:evenodd;fill:url(#SVGID_1_);stroke:url(#SVGID_2_);stroke-miterlimit:4.2667;}
	.st33{fill-rule:evenodd;clip-rule:evenodd;fill:url(#SVGID_3_);}
	.st34{fill-rule:evenodd;clip-rule:evenodd;fill:#D6D6D6;}
	.st35{fill:url(#path3793_25_);}
	.st36{fill:url(#path3793_26_);}
	.st37{fill:url(#path3793_27_);}
	.st38{fill:url(#path3793_28_);}
	.st39{fill:url(#path3793_29_);}
	.st40{fill:url(#path3793_30_);}
	.st41{fill:url(#path3793_31_);}
	.st42{fill:url(#path3793_32_);}
	.st43{fill:url(#path3793_33_);}
	.st44{fill:url(#path3793_34_);}
	.st45{fill:url(#path3793_35_);}
	.st46{fill:url(#path3793_36_);}
	.st47{fill:url(#path3793_37_);}
	.st48{fill:url(#path3793_38_);}
	.st49{fill:url(#path3793_39_);}
	.st50{fill:url(#path3793_40_);}
	.st51{fill:url(#path3793_41_);}
	.st52{fill:url(#path3793_42_);}
	.st53{fill:url(#path3793_43_);}
	.st54{fill-rule:evenodd;clip-rule:evenodd;fill:url(#SVGID_4_);}
	.st55{fill-rule:evenodd;clip-rule:evenodd;fill:url(#SVGID_5_);}
	.st56{fill-rule:evenodd;clip-rule:evenodd;fill:url(#SVGID_6_);}
	.st57{fill-rule:evenodd;clip-rule:evenodd;fill:url(#SVGID_7_);}
	.st58{fill-rule:evenodd;clip-rule:evenodd;fill:url(#SVGID_8_);}
	.st59{fill-rule:evenodd;clip-rule:evenodd;fill:url(#SVGID_9_);}
	.st60{fill-rule:evenodd;clip-rule:evenodd;fill:url(#SVGID_10_);}
	.st61{fill-rule:evenodd;clip-rule:evenodd;fill:url(#SVGID_11_);}
	.st62{fill-rule:evenodd;clip-rule:evenodd;fill:url(#SVGID_12_);}
	.st63{fill-rule:evenodd;clip-rule:evenodd;fill:url(#SVGID_13_);}
</style>
<g id="svg2985" inkscape:version="0.92.3 (2405546, 2018-03-11)" sodipodi:docname="xHPTDC8_schematic.svg" xmlns:cc="http://creativecommons.org/ns#" xmlns:dc="http://purl.org/dc/elements/1.1/" xmlns:inkscape="http://www.inkscape.org/namespaces/inkscape" xmlns:rdf="http://www.w3.org/1999/02/22-rdf-syntax-ns#" xmlns:sodipodi="http://sodipodi.sourceforge.net/DTD/sodipodi-0.dtd" xmlns:svg="http://www.w3.org/2000/svg">
	
		<sodipodi:namedview  bordercolor="#666666" borderopacity="1" fit-margin-bottom="0" fit-margin-left="0" fit-margin-right="0" fit-margin-top="0" gridtolerance="10" guidetolerance="10" id="namedview3064" inkscape:current-layer="svg2985" inkscape:cx="3121.3111" inkscape:cy="839.31359" inkscape:guide-bbox="true" inkscape:pageopacity="0" inkscape:pageshadow="2" inkscape:window-height="1417" inkscape:window-maximized="1" inkscape:window-width="2498" inkscape:window-x="54" inkscape:window-y="301" inkscape:zoom="0.24723845" objecttolerance="10" pagecolor="#ffffff" showgrid="false" showguides="true">
		</sodipodi:namedview>
	<path id="path3989" inkscape:connector-curvature="0" sodipodi:nodetypes="cccccssccsscccccccccc" class="st0" d="M3361.8,2758.7
		h-354.3l-557.5,2.6l1.3,194.1l-222.5-0.4c0,0-1.2-129.7-1.2-196.3c0-22.5-31.8-23.5-31.8,0c0,103.4-0.1,196.3-0.1,196.3l-252.1,1.1
		c0,0-1.8-83.2-2.2-197.4c-0.1-28.4-85.7-28.4-85.3,0c0.5,43.8,0.4,135.3,0.4,135.3H1671l-2.3-134.4l-78.3-0.9h-354.3H527.3v-2551
		h5669.1v2551L3361.8,2758.7L3361.8,2758.7z"/>
	<path id="path2996" inkscape:connector-curvature="0" sodipodi:nodetypes="cccccssccsscccccccccc" class="st1" d="M3329.8,2724.6
		h-354.3l-557.5,2.6l1.3,194.1l-222.5-0.4c0,0-1.2-129.7-1.2-196.3c0-22.5-31.8-23.5-31.8,0c0,103.4-0.1,196.3-0.1,196.3l-252.1,1.1
		c0,0-1.8-83.2-2.2-197.4c-0.1-28.4-85.7-28.4-85.3,0c0.5,43.8,0.4,135.3,0.4,135.3H1639l-2.3-134.4l-78.3-0.9h-354.3H495.3v-2551
		h5669.1v2551L3329.8,2724.6L3329.8,2724.6z"/>
	<path id="path3897" inkscape:connector-curvature="0" class="st2" d="M609,2262.9H325.5v-141.7h566.9v141.7H609z"/>
	<linearGradient id="path3034_10_" gradientUnits="userSpaceOnUse" x1="591.25" y1="2248.2429" x2="591.25" y2="2094.6428">
		<stop  offset="7.944175e-02" style="stop-color:#A3A3A3"/>
		<stop  offset="0.5368" style="stop-color:#FFFFFF"/>
		<stop  offset="0.6148" style="stop-color:#F5F5F5"/>
		<stop  offset="0.7487" style="stop-color:#D9D9D9"/>
		<stop  offset="0.9213" style="stop-color:#ADADAD"/>
		<stop  offset="1" style="stop-color:#969696"/>
	</linearGradient>
	<path id="path3034_7_" inkscape:connector-curvature="0" class="st3" d="M588.5,2248.2l-284.2-2.1v-150.6l573.9-0.9v153.6H588.5z"
		/>
	<ellipse id="path3905" class="st4" cx="895.3" cy="2192" rx="16.4" ry="76.8"/>
	<ellipse id="path3907" class="st5" cx="878.2" cy="2172.8" rx="16.4" ry="76.8"/>
	<path id="path3993" inkscape:connector-curvature="0" class="st0" d="M2935.1,617.3h-340.5V443.9h681v173.5h-340.5V617.3z"/>
	<path id="path3040" inkscape:connector-curvature="0" class="st6" d="M2913.8,596h-340.5V422.5h681V596H2913.8z"/>
	<path id="path3991" inkscape:connector-curvature="0" class="st0" d="M4260.4,370H3345V114.3h1830.7V370H4260.4z"/>
	<path id="path3044" inkscape:connector-curvature="0" class="st6" d="M4239.1,344.4h-915.4V88.7h1830.7v255.7H4239.1z"/>
	<path id="path3789" inkscape:connector-curvature="0" class="st2" d="M611,725.6H327.5V583.9h566.9v141.7L611,725.6L611,725.6z"/>
	<linearGradient id="path3034_11_" gradientUnits="userSpaceOnUse" x1="593.25" y1="712.3" x2="593.25" y2="558.7">
		<stop  offset="7.944175e-02" style="stop-color:#A3A3A3"/>
		<stop  offset="0.5368" style="stop-color:#FFFFFF"/>
		<stop  offset="0.6148" style="stop-color:#F5F5F5"/>
		<stop  offset="0.7487" style="stop-color:#D9D9D9"/>
		<stop  offset="0.9213" style="stop-color:#ADADAD"/>
		<stop  offset="1" style="stop-color:#969696"/>
	</linearGradient>
	<path id="path3034" inkscape:connector-curvature="0" class="st7" d="M590.5,712.3l-284.2-2.1V559.6l573.9-0.9v153.6H590.5z"/>
	<ellipse id="path3795" class="st8" cx="897.3" cy="654.7" rx="16.4" ry="76.8"/>
	<ellipse id="path3791" class="st9" cx="880.2" cy="635.5" rx="16.4" ry="76.8"/>
	<path id="path3853" inkscape:connector-curvature="0" class="st2" d="M609,2039.6H325.5v-141.7h566.9v141.7H609z"/>
	<linearGradient id="path3034_12_" gradientUnits="userSpaceOnUse" x1="591.25" y1="2026.3501" x2="591.25" y2="1872.75">
		<stop  offset="7.944175e-02" style="stop-color:#A3A3A3"/>
		<stop  offset="0.5368" style="stop-color:#FFFFFF"/>
		<stop  offset="0.6148" style="stop-color:#F5F5F5"/>
		<stop  offset="0.7487" style="stop-color:#D9D9D9"/>
		<stop  offset="0.9213" style="stop-color:#ADADAD"/>
		<stop  offset="1" style="stop-color:#969696"/>
	</linearGradient>
	<path id="path3034_6_" inkscape:connector-curvature="0" class="st10" d="M588.5,2026.4l-284.2-2.1v-150.6l573.9-0.9v153.6H588.5z"
		/>
	<ellipse id="path3861" class="st4" cx="895.3" cy="1968.7" rx="16.4" ry="76.8"/>
	<ellipse id="path3863" class="st5" cx="878.2" cy="1949.5" rx="16.4" ry="76.8"/>
	<path id="path3915" inkscape:connector-curvature="0" class="st2" d="M609,2486.2H325.5v-141.7h566.9v141.7H609z"/>
	<linearGradient id="path3034_13_" gradientUnits="userSpaceOnUse" x1="590.8323" y1="2472.9001" x2="590.8323" y2="2319.3">
		<stop  offset="7.944175e-02" style="stop-color:#A3A3A3"/>
		<stop  offset="0.5368" style="stop-color:#FFFFFF"/>
		<stop  offset="0.6148" style="stop-color:#F5F5F5"/>
		<stop  offset="0.7487" style="stop-color:#D9D9D9"/>
		<stop  offset="0.9213" style="stop-color:#ADADAD"/>
		<stop  offset="1" style="stop-color:#969696"/>
	</linearGradient>
	<path id="path3034_8_" inkscape:connector-curvature="0" class="st11" d="M588.1,2472.9l-284.2-2.1v-150.6l573.9-0.9v153.6H588.1z"
		/>
	<ellipse id="path3923" class="st4" cx="895.3" cy="2415.3" rx="16.4" ry="76.8"/>
	<ellipse id="path3925" class="st5" cx="878.2" cy="2396.1" rx="16.4" ry="76.8"/>
	<path id="path3933" inkscape:connector-curvature="0" class="st2" d="M609,2709.5H325.5v-141.7h566.9v141.7H609z"/>
	<linearGradient id="path3034_14_" gradientUnits="userSpaceOnUse" x1="590.8323" y1="2696.25" x2="590.8323" y2="2542.6501">
		<stop  offset="7.944175e-02" style="stop-color:#A3A3A3"/>
		<stop  offset="0.5368" style="stop-color:#FFFFFF"/>
		<stop  offset="0.6148" style="stop-color:#F5F5F5"/>
		<stop  offset="0.7487" style="stop-color:#D9D9D9"/>
		<stop  offset="0.9213" style="stop-color:#ADADAD"/>
		<stop  offset="1" style="stop-color:#969696"/>
	</linearGradient>
	<path id="path3034_9_" inkscape:connector-curvature="0" class="st12" d="M588.1,2696.2l-284.2-2.1v-150.6l573.9-0.9v153.6H588.1z"
		/>
	<ellipse id="path3941" class="st4" cx="895.3" cy="2638.6" rx="16.4" ry="76.8"/>
	<ellipse id="path3943" class="st5" cx="878.2" cy="2619.4" rx="16.4" ry="76.8"/>
	<rect id="rect3979" x="2195.8" y="2821.3" class="st13" width="221.9" height="98.5"/>
	<rect id="rect3981" x="2195.8" y="2821.3" class="st14" width="223.4" height="98.5"/>
	<rect id="rect3983" x="1910" y="2821.4" class="st15" width="253" height="99.6"/>
	<path id="path3993-5" inkscape:connector-curvature="0" class="st0" d="M2373,902.3h-340.5V728.8h681v173.5H2373z"/>
	<path id="path3040-0" inkscape:connector-curvature="0" class="st6" d="M2351.7,880.9h-340.5V707.5h681V881L2351.7,880.9
		L2351.7,880.9z"/>
	<path id="path3897-5" inkscape:connector-curvature="0" class="st2" d="M611.8,1371.5H328.4v-141.7h566.9v141.7H611.8z"/>
	<ellipse id="path3905-6" class="st16" cx="898.1" cy="1300.6" rx="16.4" ry="76.8"/>
	<path id="path3853-2" inkscape:connector-curvature="0" class="st2" d="M611.8,1148.2H328.4v-141.7h566.9v141.7H611.8z"/>
	<ellipse id="path3861-1" class="st16" cx="898.1" cy="1077.3" rx="16.4" ry="76.8"/>
	<path id="path3915-0" inkscape:connector-curvature="0" class="st2" d="M611.8,1594.8H328.4v-141.7h566.9v141.7H611.8z"/>
	<linearGradient id="path3034_15_" gradientUnits="userSpaceOnUse" x1="593.25" y1="1581.5" x2="593.25" y2="1427.9">
		<stop  offset="7.944175e-02" style="stop-color:#A3A3A3"/>
		<stop  offset="0.5368" style="stop-color:#FFFFFF"/>
		<stop  offset="0.6148" style="stop-color:#F5F5F5"/>
		<stop  offset="0.7487" style="stop-color:#D9D9D9"/>
		<stop  offset="0.9213" style="stop-color:#ADADAD"/>
		<stop  offset="1" style="stop-color:#969696"/>
	</linearGradient>
	<path id="path3034_4_" inkscape:connector-curvature="0" class="st17" d="M590.5,1581.5l-284.2-2.1v-150.6l573.9-0.9v153.6H590.5z"
		/>
	<ellipse id="path3923-4" class="st16" cx="898.1" cy="1523.9" rx="16.4" ry="76.8"/>
	<linearGradient id="path3034_16_" gradientUnits="userSpaceOnUse" x1="593.25" y1="1134.3" x2="593.25" y2="980.7001">
		<stop  offset="7.944175e-02" style="stop-color:#A3A3A3"/>
		<stop  offset="0.5368" style="stop-color:#FFFFFF"/>
		<stop  offset="0.6148" style="stop-color:#F5F5F5"/>
		<stop  offset="0.7487" style="stop-color:#D9D9D9"/>
		<stop  offset="0.9213" style="stop-color:#ADADAD"/>
		<stop  offset="1" style="stop-color:#969696"/>
	</linearGradient>
	<path id="path3034_2_" inkscape:connector-curvature="0" class="st18" d="M590.5,1134.3l-284.2-2.1V981.6l573.9-0.9v153.6H590.5z"
		/>
	<ellipse id="path3925-5" class="st9" cx="881.1" cy="1504.7" rx="16.4" ry="76.8"/>
	<path id="path3933-6" inkscape:connector-curvature="0" class="st2" d="M611.8,1818.1H328.4v-141.7h566.9v141.7H611.8z"/>
	<linearGradient id="path3034_17_" gradientUnits="userSpaceOnUse" x1="593.25" y1="1804.8501" x2="593.25" y2="1651.25">
		<stop  offset="7.944175e-02" style="stop-color:#A3A3A3"/>
		<stop  offset="0.5368" style="stop-color:#FFFFFF"/>
		<stop  offset="0.6148" style="stop-color:#F5F5F5"/>
		<stop  offset="0.7487" style="stop-color:#D9D9D9"/>
		<stop  offset="0.9213" style="stop-color:#ADADAD"/>
		<stop  offset="1" style="stop-color:#969696"/>
	</linearGradient>
	<path id="path3034_5_" inkscape:connector-curvature="0" class="st19" d="M590.5,1804.9l-284.2-2.1v-150.6l573.9-0.9v153.6H590.5z"
		/>
	<ellipse id="path3941-2" class="st16" cx="898.1" cy="1747.2" rx="16.4" ry="76.8"/>
	<ellipse id="path3863-3" class="st9" cx="881.1" cy="1058.1" rx="16.4" ry="76.8"/>
	<linearGradient id="path3034_18_" gradientUnits="userSpaceOnUse" x1="593.25" y1="1357.6001" x2="593.25" y2="1204">
		<stop  offset="7.944175e-02" style="stop-color:#A3A3A3"/>
		<stop  offset="0.5368" style="stop-color:#FFFFFF"/>
		<stop  offset="0.6148" style="stop-color:#F5F5F5"/>
		<stop  offset="0.7487" style="stop-color:#D9D9D9"/>
		<stop  offset="0.9213" style="stop-color:#ADADAD"/>
		<stop  offset="1" style="stop-color:#969696"/>
	</linearGradient>
	<path id="path3034_3_" inkscape:connector-curvature="0" class="st20" d="M590.5,1357.6l-284.2-2.1v-150.6l573.9-0.9v153.6H590.5z"
		/>
	<ellipse id="path3907-4" class="st9" cx="881.1" cy="1281.4" rx="16.4" ry="76.8"/>
	<ellipse id="path3943-3" class="st9" cx="881.1" cy="1728" rx="16.4" ry="76.8"/>
	<path id="path3789-5" inkscape:connector-curvature="0" class="st2" d="M614.9,936.7H331.5V795h566.9v141.7H614.9z"/>
	<ellipse id="path3795-1" class="st8" cx="901.2" cy="865.8" rx="16.4" ry="76.8"/>
	<linearGradient id="path3793_22_" gradientUnits="userSpaceOnUse" x1="306.3" y1="710.2" x2="306.3" y2="559.6">
		<stop  offset="7.944175e-02" style="stop-color:#A3A3A3"/>
		<stop  offset="0.5368" style="stop-color:#FFFFFF"/>
		<stop  offset="0.6148" style="stop-color:#F5F5F5"/>
		<stop  offset="0.7487" style="stop-color:#D9D9D9"/>
		<stop  offset="0.9213" style="stop-color:#ADADAD"/>
		<stop  offset="1" style="stop-color:#969696"/>
	</linearGradient>
	<ellipse id="path3793" class="st21" cx="306.3" cy="634.9" rx="16.4" ry="75.3"/>
	<path id="path3865" inkscape:connector-curvature="0" class="st22" d="M528.5,1872.7v153.7"/>
	<linearGradient id="path3793_23_" gradientUnits="userSpaceOnUse" x1="539.1" y1="711.9164" x2="539.1" y2="559.2521">
		<stop  offset="7.944175e-02" style="stop-color:#A3A3A3"/>
		<stop  offset="0.5368" style="stop-color:#FFFFFF"/>
		<stop  offset="0.6148" style="stop-color:#F5F5F5"/>
		<stop  offset="0.7487" style="stop-color:#D9D9D9"/>
		<stop  offset="0.9213" style="stop-color:#ADADAD"/>
		<stop  offset="1" style="stop-color:#969696"/>
	</linearGradient>
	<path id="path3793_1_" class="st23" d="M538.8,559.3c9.1,0,16.7,36.3,16.7,77.8s-7.9,74.8-16.9,74.8c-9.1,0-15.9-33.2-15.9-74.8
		S529.7,559.3,538.8,559.3z"/>
	<linearGradient id="path3034_19_" gradientUnits="userSpaceOnUse" x1="597.25" y1="923.4" x2="597.25" y2="769.8">
		<stop  offset="7.944175e-02" style="stop-color:#A3A3A3"/>
		<stop  offset="0.5368" style="stop-color:#FFFFFF"/>
		<stop  offset="0.6148" style="stop-color:#F5F5F5"/>
		<stop  offset="0.7487" style="stop-color:#D9D9D9"/>
		<stop  offset="0.9213" style="stop-color:#ADADAD"/>
		<stop  offset="1" style="stop-color:#969696"/>
	</linearGradient>
	<path id="path3034_1_" inkscape:connector-curvature="0" class="st24" d="M594.5,923.4l-284.2-2.1V770.7l573.9-0.9v153.6H594.5z"/>
	<ellipse id="path3791-4" class="st9" cx="884.2" cy="846.6" rx="16.4" ry="76.8"/>
	<linearGradient id="path3793_24_" gradientUnits="userSpaceOnUse" x1="543.1" y1="923.0164" x2="543.1" y2="770.3521">
		<stop  offset="7.944175e-02" style="stop-color:#A3A3A3"/>
		<stop  offset="0.5368" style="stop-color:#FFFFFF"/>
		<stop  offset="0.6148" style="stop-color:#F5F5F5"/>
		<stop  offset="0.7487" style="stop-color:#D9D9D9"/>
		<stop  offset="0.9213" style="stop-color:#ADADAD"/>
		<stop  offset="1" style="stop-color:#969696"/>
	</linearGradient>
	<path id="path3793_2_" class="st25" d="M542.8,770.4c9.1,0,16.7,36.3,16.7,77.8s-7.9,74.8-16.9,74.8c-9.1,0-15.9-33.2-15.9-74.8
		S533.7,770.4,542.8,770.4z"/>
	<path id="path3787" inkscape:connector-curvature="0" sodipodi:nodetypes="ccc" class="st26" d="M506.7,3024.1L511,332H178.8"/>
	<path id="path3017" inkscape:connector-curvature="0" sodipodi:nodetypes="ccc" class="st27" d="M487.5,3007l4.3-2692.1H159.6"/>
	<path id="path3805_2_" inkscape:connector-curvature="0" class="st22" d="M539.1,712.4"/>
	<path id="path3805_1_" inkscape:connector-curvature="0" class="st22" d="M539.1,558.7"/>
	<path id="path3865-1_2_" inkscape:connector-curvature="0" class="st22" d="M531.4,1135"/>
	<path id="path3865-1_1_" inkscape:connector-curvature="0" class="st22" d="M531.4,981.3"/>
	<path id="path3977-0_2_" inkscape:connector-curvature="0" class="st28" d="M537,1135.1"/>
	<path id="path3977-0_1_" inkscape:connector-curvature="0" class="st28" d="M537,980.6"/>
	<path id="path3805-0_2_" inkscape:connector-curvature="0" class="st22" d="M543,923.5"/>
	<path id="path3805-0_1_" inkscape:connector-curvature="0" class="st22" d="M543,769.8"/>
	<text transform="matrix(1 0 0 1 554.647 670.7156)" class="st29 st30">ADC</text>
	<text transform="matrix(1 0 0 1 579.7332 870.8933)" class="st29 st30">Trg</text>
	<text transform="matrix(1 0 0 1 610.95 1093.3757)" class="st29 st30">A</text>
	<text transform="matrix(1 0 0 1 614.95 1318.6746)" class="st29 st30">B</text>
	<text transform="matrix(1 0 0 1 614.95 1543.1091)" class="st29 st30">C</text>
	<text transform="matrix(1 0 0 1 622.4368 1765.5886)" class="st29 st30">D</text>
	<text transform="matrix(1 0 0 1 622.4368 1984.0017)" class="st29 st30">E</text>
	<text transform="matrix(1 0 0 1 622.4368 2210.4138)" class="st29 st30">F</text>
	<text transform="matrix(1 0 0 1 614.95 2428.8269)" class="st29 st30">G</text>
	<text transform="matrix(1 0 0 1 614.95 2657.3953)" class="st29 st30">H</text>
	<text transform="matrix(1 0 0 1 4162.356 242.8049)" class="st31 st29 st30">J12</text>
	<g id="flowRoot1158">
	</g>
	<text transform="matrix(1 0 0 1 2836.2661 535.5203)" class="st31 st29 st30">J25</text>
	<text transform="matrix(1 0 0 1 2274.6304 820.4343)" class="st31 st29 st30">J13</text>
</g>
<rect x="1906.9" y="172.8" class="st0" width="21.9" height="89.8"/>
<rect x="1787.2" y="261.2" class="st0" width="170.3" height="170.3"/>
<linearGradient id="SVGID_1_" gradientUnits="userSpaceOnUse" x1="1790.7" y1="-2148.3501" x2="1913.2999" y2="-2148.3501" gradientTransform="matrix(1 0 0 1 0 2302)">
	<stop  offset="7.944175e-02" style="stop-color:#A3A3A3"/>
	<stop  offset="0.5368" style="stop-color:#FFFFFF"/>
	<stop  offset="0.6148" style="stop-color:#F5F5F5"/>
	<stop  offset="0.7487" style="stop-color:#D9D9D9"/>
	<stop  offset="0.9213" style="stop-color:#ADADAD"/>
	<stop  offset="1" style="stop-color:#969696"/>
</linearGradient>
<linearGradient id="SVGID_2_" gradientUnits="userSpaceOnUse" x1="1790.2" y1="153.65" x2="1913.7999" y2="153.65">
	<stop  offset="7.944175e-02" style="stop-color:#A3A3A3"/>
	<stop  offset="0.5368" style="stop-color:#FFFFFF"/>
	<stop  offset="0.6148" style="stop-color:#F5F5F5"/>
	<stop  offset="0.7487" style="stop-color:#D9D9D9"/>
	<stop  offset="0.9213" style="stop-color:#ADADAD"/>
	<stop  offset="1" style="stop-color:#969696"/>
</linearGradient>
<rect x="1790.7" y="32.8" class="st32" width="122.6" height="241.7"/>
<radialGradient id="SVGID_3_" cx="1852.05" cy="-1972.65" r="139.1458" gradientTransform="matrix(1 0 0 1 0 2302)" gradientUnits="userSpaceOnUse">
	<stop  offset="0" style="stop-color:#FFFFFF"/>
	<stop  offset="6.465763e-02" style="stop-color:#E2E2E2"/>
	<stop  offset="0.1459" style="stop-color:#C5C5C5"/>
	<stop  offset="0.2325" style="stop-color:#AEAEAE"/>
	<stop  offset="0.3256" style="stop-color:#9E9E9E"/>
	<stop  offset="0.4299" style="stop-color:#949494"/>
	<stop  offset="0.5683" style="stop-color:#919191"/>
	<stop  offset="1" style="stop-color:#2B2B29"/>
</radialGradient>
<rect x="1767.9" y="245.2" class="st33" width="168.3" height="168.3"/>
<circle class="st34" cx="1852" cy="329.3" r="83.8"/>
<g id="J2">
	<text transform="matrix(1 0 0 1 1795.76 363.8075)" class="st29 st30">J2</text>
</g>
<linearGradient id="path3793_25_" gradientUnits="userSpaceOnUse" x1="310.3" y1="921.2349" x2="310.3" y2="770.6349">
	<stop  offset="7.944175e-02" style="stop-color:#A3A3A3"/>
	<stop  offset="0.5368" style="stop-color:#FFFFFF"/>
	<stop  offset="0.6148" style="stop-color:#F5F5F5"/>
	<stop  offset="0.7487" style="stop-color:#D9D9D9"/>
	<stop  offset="0.9213" style="stop-color:#ADADAD"/>
	<stop  offset="1" style="stop-color:#969696"/>
</linearGradient>
<ellipse id="path3793_3_" class="st35" cx="310.3" cy="845.9" rx="16.4" ry="75.3"/>
<linearGradient id="path3793_26_" gradientUnits="userSpaceOnUse" x1="539.1" y1="922.871" x2="539.1" y2="770.3412">
	<stop  offset="7.944175e-02" style="stop-color:#A3A3A3"/>
	<stop  offset="0.5368" style="stop-color:#FFFFFF"/>
	<stop  offset="0.6148" style="stop-color:#F5F5F5"/>
	<stop  offset="0.7487" style="stop-color:#D9D9D9"/>
	<stop  offset="0.9213" style="stop-color:#ADADAD"/>
	<stop  offset="1" style="stop-color:#969696"/>
</linearGradient>
<path id="path3793_4_" class="st36" d="M539.1,770.3c9.1,0,16.4,35.6,16.4,77.2s-7.3,75.3-16.4,75.3s-16.4-33.7-16.4-75.3
	S530,770.3,539.1,770.3z"/>
<linearGradient id="path3793_27_" gradientUnits="userSpaceOnUse" x1="306.3" y1="1132.3542" x2="306.3" y2="981.7543">
	<stop  offset="7.944175e-02" style="stop-color:#A3A3A3"/>
	<stop  offset="0.5368" style="stop-color:#FFFFFF"/>
	<stop  offset="0.6148" style="stop-color:#F5F5F5"/>
	<stop  offset="0.7487" style="stop-color:#D9D9D9"/>
	<stop  offset="0.9213" style="stop-color:#ADADAD"/>
	<stop  offset="1" style="stop-color:#969696"/>
</linearGradient>
<ellipse id="path3793_5_" class="st37" cx="306.3" cy="1057.1" rx="16.4" ry="75.3"/>
<linearGradient id="path3793_28_" gradientUnits="userSpaceOnUse" x1="538.247" y1="1133.9141" x2="538.247" y2="981.3">
	<stop  offset="7.944175e-02" style="stop-color:#A3A3A3"/>
	<stop  offset="0.5368" style="stop-color:#FFFFFF"/>
	<stop  offset="0.6148" style="stop-color:#F5F5F5"/>
	<stop  offset="0.7487" style="stop-color:#D9D9D9"/>
	<stop  offset="0.9213" style="stop-color:#ADADAD"/>
	<stop  offset="1" style="stop-color:#969696"/>
</linearGradient>
<path id="path3793_6_" class="st38" d="M538.2,981.3c9.1,0,16.4,33.7,16.4,75.3s-7.3,77.3-16.4,77.3c-9.1,0-16.4-35.7-16.4-77.3
	S529.2,981.3,538.2,981.3z"/>
<linearGradient id="path3793_29_" gradientUnits="userSpaceOnUse" x1="306.7434" y1="1355.4868" x2="306.7434" y2="1204.8868">
	<stop  offset="7.944175e-02" style="stop-color:#A3A3A3"/>
	<stop  offset="0.5368" style="stop-color:#FFFFFF"/>
	<stop  offset="0.6148" style="stop-color:#F5F5F5"/>
	<stop  offset="0.7487" style="stop-color:#D9D9D9"/>
	<stop  offset="0.9213" style="stop-color:#ADADAD"/>
	<stop  offset="1" style="stop-color:#969696"/>
</linearGradient>
<ellipse id="path3793_7_" class="st39" cx="306.7" cy="1280.2" rx="16.4" ry="75.3"/>
<linearGradient id="path3793_30_" gradientUnits="userSpaceOnUse" x1="538.3237" y1="1357.1071" x2="538.3237" y2="1204.493">
	<stop  offset="7.944175e-02" style="stop-color:#A3A3A3"/>
	<stop  offset="0.5368" style="stop-color:#FFFFFF"/>
	<stop  offset="0.6148" style="stop-color:#F5F5F5"/>
	<stop  offset="0.7487" style="stop-color:#D9D9D9"/>
	<stop  offset="0.9213" style="stop-color:#ADADAD"/>
	<stop  offset="1" style="stop-color:#969696"/>
</linearGradient>
<path id="path3793_8_" class="st40" d="M538.3,1204.5c9.1,0,16.4,33.7,16.4,75.3s-7.3,77.3-16.4,77.3c-9.1,0-16.4-35.7-16.4-77.3
	S529.3,1204.5,538.3,1204.5z"/>
<linearGradient id="path3793_31_" gradientUnits="userSpaceOnUse" x1="306.3" y1="1579.3867" x2="306.3" y2="1428.7867">
	<stop  offset="7.944175e-02" style="stop-color:#A3A3A3"/>
	<stop  offset="0.5368" style="stop-color:#FFFFFF"/>
	<stop  offset="0.6148" style="stop-color:#F5F5F5"/>
	<stop  offset="0.7487" style="stop-color:#D9D9D9"/>
	<stop  offset="0.9213" style="stop-color:#ADADAD"/>
	<stop  offset="1" style="stop-color:#969696"/>
</linearGradient>
<ellipse id="path3793_9_" class="st41" cx="306.3" cy="1504.1" rx="16.4" ry="75.3"/>
<linearGradient id="path3793_32_" gradientUnits="userSpaceOnUse" x1="306.3" y1="1803.3501" x2="306.3" y2="1652.75">
	<stop  offset="7.944175e-02" style="stop-color:#A3A3A3"/>
	<stop  offset="0.5368" style="stop-color:#FFFFFF"/>
	<stop  offset="0.6148" style="stop-color:#F5F5F5"/>
	<stop  offset="0.7487" style="stop-color:#D9D9D9"/>
	<stop  offset="0.9213" style="stop-color:#ADADAD"/>
	<stop  offset="1" style="stop-color:#969696"/>
</linearGradient>
<ellipse id="path3793_10_" class="st42" cx="306.3" cy="1728.1" rx="16.4" ry="75.3"/>
<linearGradient id="path3793_33_" gradientUnits="userSpaceOnUse" x1="304.3" y1="2024.2976" x2="304.3" y2="1873.6976">
	<stop  offset="7.944175e-02" style="stop-color:#A3A3A3"/>
	<stop  offset="0.5368" style="stop-color:#FFFFFF"/>
	<stop  offset="0.6148" style="stop-color:#F5F5F5"/>
	<stop  offset="0.7487" style="stop-color:#D9D9D9"/>
	<stop  offset="0.9213" style="stop-color:#ADADAD"/>
	<stop  offset="1" style="stop-color:#969696"/>
</linearGradient>
<ellipse id="path3793_11_" class="st43" cx="304.3" cy="1949" rx="16.4" ry="75.3"/>
<linearGradient id="path3793_34_" gradientUnits="userSpaceOnUse" x1="304.3" y1="2246.1609" x2="304.3" y2="2095.561">
	<stop  offset="7.944175e-02" style="stop-color:#A3A3A3"/>
	<stop  offset="0.5368" style="stop-color:#FFFFFF"/>
	<stop  offset="0.6148" style="stop-color:#F5F5F5"/>
	<stop  offset="0.7487" style="stop-color:#D9D9D9"/>
	<stop  offset="0.9213" style="stop-color:#ADADAD"/>
	<stop  offset="1" style="stop-color:#969696"/>
</linearGradient>
<ellipse id="path3793_12_" class="st44" cx="304.3" cy="2170.9" rx="16.4" ry="75.3"/>
<linearGradient id="path3793_35_" gradientUnits="userSpaceOnUse" x1="302.2196" y1="2471.45" x2="302.2196" y2="2320.8501">
	<stop  offset="7.944175e-02" style="stop-color:#A3A3A3"/>
	<stop  offset="0.5368" style="stop-color:#FFFFFF"/>
	<stop  offset="0.6148" style="stop-color:#F5F5F5"/>
	<stop  offset="0.7487" style="stop-color:#D9D9D9"/>
	<stop  offset="0.9213" style="stop-color:#ADADAD"/>
	<stop  offset="1" style="stop-color:#969696"/>
</linearGradient>
<ellipse id="path3793_13_" class="st45" cx="302.2" cy="2396.1" rx="16.4" ry="75.3"/>
<linearGradient id="path3793_36_" gradientUnits="userSpaceOnUse" x1="302.2196" y1="2694.75" x2="302.2196" y2="2544.1501">
	<stop  offset="7.944175e-02" style="stop-color:#A3A3A3"/>
	<stop  offset="0.5368" style="stop-color:#FFFFFF"/>
	<stop  offset="0.6148" style="stop-color:#F5F5F5"/>
	<stop  offset="0.7487" style="stop-color:#D9D9D9"/>
	<stop  offset="0.9213" style="stop-color:#ADADAD"/>
	<stop  offset="1" style="stop-color:#969696"/>
</linearGradient>
<ellipse id="path3793_14_" class="st46" cx="302.2" cy="2619.5" rx="16.4" ry="75.3"/>
<linearGradient id="path3793_37_" gradientUnits="userSpaceOnUse" x1="538.3237" y1="1581.007" x2="538.3237" y2="1428.3929">
	<stop  offset="7.944175e-02" style="stop-color:#A3A3A3"/>
	<stop  offset="0.5368" style="stop-color:#FFFFFF"/>
	<stop  offset="0.6148" style="stop-color:#F5F5F5"/>
	<stop  offset="0.7487" style="stop-color:#D9D9D9"/>
	<stop  offset="0.9213" style="stop-color:#ADADAD"/>
	<stop  offset="1" style="stop-color:#969696"/>
</linearGradient>
<path id="path3793_15_" class="st47" d="M538.3,1428.4c9.1,0,16.4,33.7,16.4,75.3s-7.3,77.3-16.4,77.3c-9.1,0-16.4-35.7-16.4-77.3
	S529.3,1428.4,538.3,1428.4z"/>
<linearGradient id="path3793_38_" gradientUnits="userSpaceOnUse" x1="538.3237" y1="1804.3571" x2="538.3237" y2="1651.743">
	<stop  offset="7.944175e-02" style="stop-color:#A3A3A3"/>
	<stop  offset="0.5368" style="stop-color:#FFFFFF"/>
	<stop  offset="0.6148" style="stop-color:#F5F5F5"/>
	<stop  offset="0.7487" style="stop-color:#D9D9D9"/>
	<stop  offset="0.9213" style="stop-color:#ADADAD"/>
	<stop  offset="1" style="stop-color:#969696"/>
</linearGradient>
<path id="path3793_16_" class="st48" d="M538.3,1651.7c9.1,0,16.4,33.7,16.4,75.3s-7.3,77.3-16.4,77.3c-9.1,0-16.4-35.7-16.4-77.3
	S529.3,1651.7,538.3,1651.7z"/>
<linearGradient id="path3793_39_" gradientUnits="userSpaceOnUse" x1="536.661" y1="2025.807" x2="536.661" y2="1873.193">
	<stop  offset="7.944175e-02" style="stop-color:#A3A3A3"/>
	<stop  offset="0.5368" style="stop-color:#FFFFFF"/>
	<stop  offset="0.6148" style="stop-color:#F5F5F5"/>
	<stop  offset="0.7487" style="stop-color:#D9D9D9"/>
	<stop  offset="0.9213" style="stop-color:#ADADAD"/>
	<stop  offset="1" style="stop-color:#969696"/>
</linearGradient>
<path id="path3793_17_" class="st49" d="M536.7,1873.2c9.1,0,16.4,33.7,16.4,75.3s-7.3,77.3-16.4,77.3c-9.1,0-16.4-35.7-16.4-77.3
	S527.6,1873.2,536.7,1873.2z"/>
<linearGradient id="path3793_40_" gradientUnits="userSpaceOnUse" x1="536.661" y1="2247.168" x2="536.661" y2="2094.554">
	<stop  offset="7.944175e-02" style="stop-color:#A3A3A3"/>
	<stop  offset="0.5368" style="stop-color:#FFFFFF"/>
	<stop  offset="0.6148" style="stop-color:#F5F5F5"/>
	<stop  offset="0.7487" style="stop-color:#D9D9D9"/>
	<stop  offset="0.9213" style="stop-color:#ADADAD"/>
	<stop  offset="1" style="stop-color:#969696"/>
</linearGradient>
<path id="path3793_18_" class="st50" d="M536.7,2094.6c9.1,0,16.4,33.7,16.4,75.3c0,41.6-7.3,77.3-16.4,77.3
	c-9.1,0-16.4-35.7-16.4-77.3C520.3,2128.3,527.6,2094.6,536.7,2094.6z"/>
<linearGradient id="path3793_41_" gradientUnits="userSpaceOnUse" x1="299.3535" y1="2247.8013" x2="299.3535" y2="2095.1873">
	<stop  offset="7.944175e-02" style="stop-color:#A3A3A3"/>
	<stop  offset="0.5368" style="stop-color:#FFFFFF"/>
	<stop  offset="0.6148" style="stop-color:#F5F5F5"/>
	<stop  offset="0.7487" style="stop-color:#D9D9D9"/>
	<stop  offset="0.9213" style="stop-color:#ADADAD"/>
	<stop  offset="1" style="stop-color:#969696"/>
</linearGradient>
<path id="path3793_19_" class="st51" d="M307.6,2247.8c-9.1,0-16.4-35.7-16.4-77.3c0-41.6,7.3-75.3,16.4-75.3"/>
<linearGradient id="path3793_42_" gradientUnits="userSpaceOnUse" x1="536.661" y1="2472.457" x2="536.661" y2="2319.843">
	<stop  offset="7.944175e-02" style="stop-color:#A3A3A3"/>
	<stop  offset="0.5368" style="stop-color:#FFFFFF"/>
	<stop  offset="0.6148" style="stop-color:#F5F5F5"/>
	<stop  offset="0.7487" style="stop-color:#D9D9D9"/>
	<stop  offset="0.9213" style="stop-color:#ADADAD"/>
	<stop  offset="1" style="stop-color:#969696"/>
</linearGradient>
<path id="path3793_20_" class="st52" d="M536.7,2319.8c9.1,0,16.4,33.7,16.4,75.3c0,41.6-7.3,77.3-16.4,77.3
	c-9.1,0-16.4-35.7-16.4-77.3C520.3,2353.6,527.6,2319.8,536.7,2319.8z"/>
<linearGradient id="path3793_43_" gradientUnits="userSpaceOnUse" x1="536.661" y1="2695.7571" x2="536.661" y2="2543.1431">
	<stop  offset="7.944175e-02" style="stop-color:#A3A3A3"/>
	<stop  offset="0.5368" style="stop-color:#FFFFFF"/>
	<stop  offset="0.6148" style="stop-color:#F5F5F5"/>
	<stop  offset="0.7487" style="stop-color:#D9D9D9"/>
	<stop  offset="0.9213" style="stop-color:#ADADAD"/>
	<stop  offset="1" style="stop-color:#969696"/>
</linearGradient>
<path id="path3793_21_" class="st53" d="M536.7,2543.1c9.1,0,16.4,33.7,16.4,75.3c0,41.6-7.3,77.3-16.4,77.3
	c-9.1,0-16.4-35.7-16.4-77.3C520.3,2576.9,527.6,2543.1,536.7,2543.1z"/>
<rect x="812.3" y="569.6" class="st0" width="170.3" height="170.3"/>
<radialGradient id="SVGID_4_" cx="881.7" cy="-1667.1" r="139.1458" gradientTransform="matrix(1 0 0 1 0 2302)" gradientUnits="userSpaceOnUse">
	<stop  offset="0" style="stop-color:#FFFFFF"/>
	<stop  offset="6.465763e-02" style="stop-color:#E2E2E2"/>
	<stop  offset="0.1459" style="stop-color:#C5C5C5"/>
	<stop  offset="0.2325" style="stop-color:#AEAEAE"/>
	<stop  offset="0.3256" style="stop-color:#9E9E9E"/>
	<stop  offset="0.4299" style="stop-color:#949494"/>
	<stop  offset="0.5683" style="stop-color:#919191"/>
	<stop  offset="1" style="stop-color:#2B2B29"/>
</radialGradient>
<rect x="797.5" y="550.8" class="st54" width="168.3" height="168.3"/>
<circle class="st34" cx="881.7" cy="634.9" r="83.8"/>
<rect x="811.5" y="780.7" class="st0" width="170.3" height="170.3"/>
<rect x="809.2" y="991.7" class="st0" width="170.3" height="170.3"/>
<rect x="809.2" y="1215.5" class="st0" width="170.3" height="170.3"/>
<rect x="809.2" y="1439.3" class="st0" width="170.3" height="170.3"/>
<rect x="809.2" y="1663.1" class="st0" width="170.3" height="170.3"/>
<rect x="809.2" y="1883.6" class="st0" width="170.3" height="170.3"/>
<rect x="809.2" y="2106.9" class="st0" width="170.3" height="170.3"/>
<rect x="807.2" y="2330.2" class="st0" width="170.3" height="170.3"/>
<rect x="807.2" y="2553.4" class="st0" width="170.3" height="170.3"/>
<radialGradient id="SVGID_5_" cx="884.2" cy="-1455.3158" r="139.1458" gradientTransform="matrix(1 0 0 1 0 2302)" gradientUnits="userSpaceOnUse">
	<stop  offset="0" style="stop-color:#FFFFFF"/>
	<stop  offset="6.465763e-02" style="stop-color:#E2E2E2"/>
	<stop  offset="0.1459" style="stop-color:#C5C5C5"/>
	<stop  offset="0.2325" style="stop-color:#AEAEAE"/>
	<stop  offset="0.3256" style="stop-color:#9E9E9E"/>
	<stop  offset="0.4299" style="stop-color:#949494"/>
	<stop  offset="0.5683" style="stop-color:#919191"/>
	<stop  offset="1" style="stop-color:#2B2B29"/>
</radialGradient>
<rect x="800" y="762.5" class="st55" width="168.3" height="168.3"/>
<radialGradient id="SVGID_6_" cx="884.8" cy="-1243.1815" r="139.1458" gradientTransform="matrix(1 0 0 1 0 2302)" gradientUnits="userSpaceOnUse">
	<stop  offset="0" style="stop-color:#FFFFFF"/>
	<stop  offset="6.465763e-02" style="stop-color:#E2E2E2"/>
	<stop  offset="0.1459" style="stop-color:#C5C5C5"/>
	<stop  offset="0.2325" style="stop-color:#AEAEAE"/>
	<stop  offset="0.3256" style="stop-color:#9E9E9E"/>
	<stop  offset="0.4299" style="stop-color:#949494"/>
	<stop  offset="0.5683" style="stop-color:#919191"/>
	<stop  offset="1" style="stop-color:#2B2B29"/>
</radialGradient>
<rect x="800.6" y="974.7" class="st56" width="168.3" height="168.3"/>
<radialGradient id="SVGID_7_" cx="884.8" cy="-1020.6" r="139.1458" gradientTransform="matrix(1 0 0 1 0 2302)" gradientUnits="userSpaceOnUse">
	<stop  offset="0" style="stop-color:#FFFFFF"/>
	<stop  offset="6.465763e-02" style="stop-color:#E2E2E2"/>
	<stop  offset="0.1459" style="stop-color:#C5C5C5"/>
	<stop  offset="0.2325" style="stop-color:#AEAEAE"/>
	<stop  offset="0.3256" style="stop-color:#9E9E9E"/>
	<stop  offset="0.4299" style="stop-color:#949494"/>
	<stop  offset="0.5683" style="stop-color:#919191"/>
	<stop  offset="1" style="stop-color:#2B2B29"/>
</radialGradient>
<rect x="800.6" y="1197.2" class="st57" width="168.3" height="168.3"/>
<radialGradient id="SVGID_8_" cx="884.8" cy="-798.0184" r="139.1458" gradientTransform="matrix(1 0 0 1 0 2302)" gradientUnits="userSpaceOnUse">
	<stop  offset="0" style="stop-color:#FFFFFF"/>
	<stop  offset="6.465763e-02" style="stop-color:#E2E2E2"/>
	<stop  offset="0.1459" style="stop-color:#C5C5C5"/>
	<stop  offset="0.2325" style="stop-color:#AEAEAE"/>
	<stop  offset="0.3256" style="stop-color:#9E9E9E"/>
	<stop  offset="0.4299" style="stop-color:#949494"/>
	<stop  offset="0.5683" style="stop-color:#919191"/>
	<stop  offset="1" style="stop-color:#2B2B29"/>
</radialGradient>
<rect x="800.6" y="1419.8" class="st58" width="168.3" height="168.3"/>
<radialGradient id="SVGID_9_" cx="884.8" cy="-573.95" r="139.1458" gradientTransform="matrix(1 0 0 1 0 2302)" gradientUnits="userSpaceOnUse">
	<stop  offset="0" style="stop-color:#FFFFFF"/>
	<stop  offset="6.465763e-02" style="stop-color:#E2E2E2"/>
	<stop  offset="0.1459" style="stop-color:#C5C5C5"/>
	<stop  offset="0.2325" style="stop-color:#AEAEAE"/>
	<stop  offset="0.3256" style="stop-color:#9E9E9E"/>
	<stop  offset="0.4299" style="stop-color:#949494"/>
	<stop  offset="0.5683" style="stop-color:#919191"/>
	<stop  offset="1" style="stop-color:#2B2B29"/>
</radialGradient>
<rect x="800.6" y="1643.9" class="st59" width="168.3" height="168.3"/>
<radialGradient id="SVGID_10_" cx="884.8" cy="-349.8815" r="139.1458" gradientTransform="matrix(1 0 0 1 0 2302)" gradientUnits="userSpaceOnUse">
	<stop  offset="0" style="stop-color:#FFFFFF"/>
	<stop  offset="6.465763e-02" style="stop-color:#E2E2E2"/>
	<stop  offset="0.1459" style="stop-color:#C5C5C5"/>
	<stop  offset="0.2325" style="stop-color:#AEAEAE"/>
	<stop  offset="0.3256" style="stop-color:#9E9E9E"/>
	<stop  offset="0.4299" style="stop-color:#949494"/>
	<stop  offset="0.5683" style="stop-color:#919191"/>
	<stop  offset="1" style="stop-color:#2B2B29"/>
</radialGradient>
<rect x="800.6" y="1868" class="st60" width="168.3" height="168.3"/>
<radialGradient id="SVGID_11_" cx="884.8" cy="-129.2" r="139.1458" gradientTransform="matrix(1 0 0 1 0 2302)" gradientUnits="userSpaceOnUse">
	<stop  offset="0" style="stop-color:#FFFFFF"/>
	<stop  offset="6.465763e-02" style="stop-color:#E2E2E2"/>
	<stop  offset="0.1459" style="stop-color:#C5C5C5"/>
	<stop  offset="0.2325" style="stop-color:#AEAEAE"/>
	<stop  offset="0.3256" style="stop-color:#9E9E9E"/>
	<stop  offset="0.4299" style="stop-color:#949494"/>
	<stop  offset="0.5683" style="stop-color:#919191"/>
	<stop  offset="1" style="stop-color:#2B2B29"/>
</radialGradient>
<rect x="800.6" y="2088.7" class="st61" width="168.3" height="168.3"/>
<radialGradient id="SVGID_12_" cx="884.8" cy="94.1001" r="139.1458" gradientTransform="matrix(1 0 0 1 0 2302)" gradientUnits="userSpaceOnUse">
	<stop  offset="0" style="stop-color:#FFFFFF"/>
	<stop  offset="6.465763e-02" style="stop-color:#E2E2E2"/>
	<stop  offset="0.1459" style="stop-color:#C5C5C5"/>
	<stop  offset="0.2325" style="stop-color:#AEAEAE"/>
	<stop  offset="0.3256" style="stop-color:#9E9E9E"/>
	<stop  offset="0.4299" style="stop-color:#949494"/>
	<stop  offset="0.5683" style="stop-color:#919191"/>
	<stop  offset="1" style="stop-color:#2B2B29"/>
</radialGradient>
<rect x="800.6" y="2312" class="st62" width="168.3" height="168.3"/>
<radialGradient id="SVGID_13_" cx="884.8" cy="317.4501" r="139.1458" gradientTransform="matrix(1 0 0 1 0 2302)" gradientUnits="userSpaceOnUse">
	<stop  offset="0" style="stop-color:#FFFFFF"/>
	<stop  offset="6.465763e-02" style="stop-color:#E2E2E2"/>
	<stop  offset="0.1459" style="stop-color:#C5C5C5"/>
	<stop  offset="0.2325" style="stop-color:#AEAEAE"/>
	<stop  offset="0.3256" style="stop-color:#9E9E9E"/>
	<stop  offset="0.4299" style="stop-color:#949494"/>
	<stop  offset="0.5683" style="stop-color:#919191"/>
	<stop  offset="1" style="stop-color:#2B2B29"/>
</radialGradient>
<rect x="800.6" y="2535.3" class="st63" width="168.3" height="168.3"/>
<circle class="st34" cx="884.8" cy="845.9" r="83.8"/>
<circle class="st34" cx="884.8" cy="1057.1" r="83.8"/>
<circle class="st34" cx="884.2" cy="1281.4" r="83.8"/>
<circle class="st34" cx="884.2" cy="1504" r="83.8"/>
<circle class="st34" cx="884.2" cy="1728.1" r="83.8"/>
<circle class="st34" cx="881.7" cy="1952.1" r="83.8"/>
<circle class="st34" cx="884.2" cy="2174.1" r="83.8"/>
<circle class="st34" cx="884.8" cy="2396.6" r="83.8"/>
<circle class="st34" cx="884.2" cy="2619.1" r="83.8"/>
</svg>
